<svg xmlns="http://www.w3.org/2000/svg" width="22" height="22" fill="none" viewBox="0 0 22 22"><g clip-path="url(#a)"><path fill="#1774C9" d="M18.277 7.333h.973c1.013 0 1.833.821 1.833 1.834v3.666c0 1.013-.82 1.834-1.833 1.834h-.973A7.335 7.335 0 0 1 11 21.083V19.25a5.5 5.5 0 0 0 5.5-5.5v-5.5a5.5 5.5 0 0 0-11 0v6.417H2.75a1.833 1.833 0 0 1-1.833-1.834V9.167c0-1.013.82-1.834 1.833-1.834h.973a7.335 7.335 0 0 1 14.554 0M2.75 9.167v3.666h.917V9.167zm15.583 0v3.666h.917V9.167zM7.113 14.47l.972-1.555c.845.529 1.844.835 2.915.835s2.07-.306 2.915-.835l.972 1.555A7.3 7.3 0 0 1 11 15.583a7.3 7.3 0 0 1-3.887-1.114"/></g><defs><clipPath id="a"><path fill="#fff" d="M0 0h22v22H0z"/></clipPath></defs></svg>