<svg width="34" height="34" viewBox="0 0 34 34" fill="none" xmlns="http://www.w3.org/2000/svg">
<path fill-rule="evenodd" clip-rule="evenodd" d="M23.8584 5.3125H2.65625C1.19 5.3125 0 6.50197 0 7.96875V24.4375C0 25.9043 1.19 27.0937 2.65625 27.0937H23.3803C23.375 27.2653 23.3697 27.4422 23.3697 27.625C23.3697 30.7503 24.2462 31.6604 25.5796 33.7577C25.7337 34.0053 26.0631 34.0786 26.3128 33.9219C26.5572 33.7647 26.6316 33.4363 26.4775 33.1888C25.2663 31.2816 24.4322 30.4672 24.4322 27.625C24.4322 25.0362 25.1706 23.6953 25.755 22.5053C26.2012 21.6022 26.5572 20.7735 26.5572 19.6562C26.5572 18.4227 26.5466 16.5155 26.5519 14.8787L26.5572 13.8157C26.5625 12.9349 27.2691 12.2187 28.1509 12.2187C29.0381 12.2187 29.7447 12.9242 29.7447 13.8125V23.375C29.7447 23.6682 29.9837 23.9062 30.2759 23.9062C30.5681 23.9062 30.8072 23.6682 30.8072 23.375C30.8072 23.375 30.8072 17.1865 30.8072 13.8125C30.8072 12.334 29.6331 11.1584 28.1562 11.1562V7.96875C28.1562 6.50197 26.9662 5.3125 25.5 5.3125H25.0484C24.7243 4.67659 23.9699 3.19653 23.8531 2.96862C23.6724 2.50644 23.6035 1.74675 24.0657 1.33291C24.2622 1.15759 24.5597 1.0625 24.9634 1.0625C25.2981 1.0625 25.6487 1.24419 26.0259 1.54381C26.4881 1.90825 26.9609 2.44641 27.455 3.12853C29.0115 5.28647 30.6797 8.84266 32.2522 13.1235C32.6825 14.2959 32.9322 15.5348 32.9322 16.7838V16.7843C32.9428 21.5262 32.9322 33.4682 32.9322 33.4682C32.9322 33.7615 33.1712 34 33.4634 34C33.7556 34 33.9947 33.7625 33.9947 33.4693C33.9947 33.4693 34.0053 21.5252 33.9947 16.7817C33.9947 15.4089 33.7238 14.0462 33.251 12.7574C31.3597 7.61653 29.3144 3.50041 27.5028 1.49016C26.6103 0.49725 25.7284 0 24.9634 0C24.2303 0 23.715 0.222062 23.359 0.538156C22.5409 1.2665 22.5516 2.5925 22.881 3.38884C22.8863 3.40159 22.8916 3.41381 22.8969 3.42603C22.9501 3.53812 23.4759 4.56822 23.8584 5.3125ZM8.5 23.375C8.78156 23.375 9.05245 23.2629 9.24902 23.0637C9.45089 22.8645 9.5625 22.5941 9.5625 22.3125C9.5625 21.8126 9.5625 21.2187 9.5625 20.7187C9.5625 20.4372 9.45089 20.1668 9.24902 19.9676C9.05245 19.7683 8.78156 19.6562 8.5 19.6562C7.57562 19.6562 6.23688 19.6562 5.3125 19.6562C5.03094 19.6562 4.76005 19.7683 4.56348 19.9676C4.36161 20.1668 4.25 20.4372 4.25 20.7187V22.3125C4.25 22.5941 4.36161 22.8645 4.56348 23.0637C4.76005 23.2629 5.03094 23.375 5.3125 23.375H8.5ZM27.0938 11.3757V10.625H1.0625V14.875H25.4894C25.4947 14.6912 25.4947 13.9814 25.4947 13.8093C25.5 12.7197 26.1588 11.7842 27.0938 11.3757Z" fill="#0FBC2E"/>
</svg>
