<svg width="34" height="34" viewBox="0 0 34 34" fill="none" xmlns="http://www.w3.org/2000/svg">
<path d="M16.9999 9.77539C13.016 9.77539 9.7749 13.0165 9.7749 17.0004C9.7749 20.9843 13.016 24.2254 16.9999 24.2254C20.9838 24.2254 24.2249 20.9843 24.2249 17.0004C24.2249 13.0165 20.9838 9.77539 16.9999 9.77539ZM18.3913 18.1861H15.5732V19.3295H18.8011C19.1141 19.3295 19.3678 19.5833 19.3678 19.8962C19.3678 20.2091 19.1141 20.4629 18.8011 20.4629H15.5732V21.8154C15.5732 22.1284 15.3195 22.3821 15.0065 22.3821C14.6936 22.3821 14.4398 22.1284 14.4398 21.8154V20.4629H13.7416C13.4286 20.4629 13.1749 20.2091 13.1749 19.8962C13.1749 19.5833 13.4286 19.3295 13.7416 19.3295H14.4398V18.1861H13.7416C13.4286 18.1861 13.1749 17.9323 13.1749 17.6194C13.1749 17.3065 13.4286 17.0527 13.7416 17.0527H14.4398V12.752C14.4398 12.4391 14.6935 12.1854 15.0064 12.1854H18.3912C20.0456 12.1854 21.3915 13.5313 21.3915 15.1856C21.3915 16.84 20.0457 18.1861 18.3913 18.1861Z" fill="#0FBC2E"/>
<path d="M18.3913 13.3184H15.5732V17.0524H18.3913C19.4208 17.0524 20.2583 16.2149 20.2583 15.1854C20.2583 14.1559 19.4208 13.3184 18.3913 13.3184Z" fill="#0FBC2E"/>
<path d="M31.4146 5.00779C19.8626 6.65679 15.7932 2.95788 1.95571 4.90013C0.840792 5.05667 0 6.02142 0 7.14554V26.816C0 28.1892 1.21196 29.2436 2.56629 29.0628C16.0152 27.2677 20.1245 30.9871 32.0769 29.1577C33.1911 28.987 34 28.0449 34 26.9172V7.25179C34 5.876 32.7812 4.81251 31.4146 5.00779ZM26.9167 11.1214H29.75C30.0629 11.1214 30.3167 11.3751 30.3167 11.6881C30.3167 12.001 30.0629 12.2548 29.75 12.2548H26.9167C26.6037 12.2548 26.35 12.001 26.35 11.6881C26.35 11.3751 26.6037 11.1214 26.9167 11.1214ZM30.3167 14.8756C30.3167 15.1885 30.0629 15.4423 29.75 15.4423H27.625C27.3121 15.4423 27.0583 15.1885 27.0583 14.8756C27.0583 14.5626 27.3121 14.3089 27.625 14.3089H29.75C30.0629 14.3089 30.3167 14.5626 30.3167 14.8756ZM7.08333 22.8798H4.25C3.93706 22.8798 3.68333 22.626 3.68333 22.3131C3.68333 22.0001 3.93706 21.7464 4.25 21.7464H7.08333C7.39628 21.7464 7.65 22.0001 7.65 22.3131C7.65 22.626 7.39628 22.8798 7.08333 22.8798ZM3.68333 19.1256C3.68333 18.8126 3.93706 18.5589 4.25 18.5589H6.375C6.68794 18.5589 6.94167 18.8126 6.94167 19.1256C6.94167 19.4385 6.68794 19.6923 6.375 19.6923H4.25C3.93706 19.6923 3.68333 19.4385 3.68333 19.1256ZM4.675 12.9969V14.951C4.675 15.2639 4.42128 15.5176 4.10833 15.5176C3.79539 15.5176 3.54167 15.2639 3.54167 14.951V12.4673C3.54167 12.1543 3.79539 11.9006 4.10833 11.9006C5.94412 11.9006 7.40945 10.344 7.28918 8.50484C7.26856 8.18729 7.51393 7.9143 7.83261 7.90183C8.91969 7.85947 9.97284 7.85182 11.0525 7.87839C11.3653 7.88611 11.6127 8.14599 11.6051 8.45886C11.5975 8.76699 11.3452 9.01158 11.0388 9.01158C10.9372 9.01158 9.89981 8.97396 8.41868 9.01604C8.27588 11.069 6.69226 12.7314 4.675 12.9969ZM17 25.3589C12.3912 25.3589 8.64167 21.6094 8.64167 17.0006C8.64167 12.3918 12.3912 8.64225 17 8.64225C21.6088 8.64225 25.3583 12.3918 25.3583 17.0006C25.3583 21.6094 21.6088 25.3589 17 25.3589ZM30.4583 21.6048C30.4583 21.9177 30.2046 22.1714 29.8917 22.1714C28.1341 22.1714 26.7042 23.6013 26.7042 25.3589C26.7042 25.5317 26.7502 25.7452 26.5578 25.9519C26.4529 26.0646 26.3066 26.1297 26.1527 26.1323C25.1091 26.1499 24.0633 26.1277 22.9595 26.0645C22.647 26.0466 22.4083 25.7788 22.4261 25.4664C22.444 25.1539 22.7114 24.9146 23.0242 24.933C23.9067 24.9835 24.7485 25.0074 25.5852 25.0047C25.7506 22.9754 27.3245 21.3384 29.325 21.0751V19.105C29.325 18.7921 29.5787 18.5384 29.8917 18.5384C30.2046 18.5384 30.4583 18.7921 30.4583 19.105V21.6048Z" fill="#0FBC2E"/>
</svg>
