<svg width="40" height="40" viewBox="0 0 40 40" fill="none" xmlns="http://www.w3.org/2000/svg">
<path fill-rule="evenodd" clip-rule="evenodd" d="M10.2942 8.52941C10.2942 7.5598 10.2942 5 10.2942 5C10.2942 5 12.8441 5 13.8236 5H26.1765C28.1257 5 29.706 5 29.706 5V13.8235V15.5882V22.6471V24.4118V33.2353H27.9412V35H26.1765V33.2353H13.8236V35H12.0589V33.2353H10.2942C10.2942 33.2353 10.2942 30.5254 10.2942 29.7059V24.4118V22.6471V15.5882V13.8235V8.52941ZM27.9412 22.6471H12.0589V15.5882H27.9412V22.6471ZM12.0589 27.9412V24.4118H27.9412V27.9412V31.4706H12.0589C12.0589 31.4706 12.0589 29.8905 12.0589 27.9412ZM27.9412 13.8235H12.0589V10.2941C12.0589 9.35306 12.0589 6.76471 12.0589 6.76471C12.0589 6.76471 14.5802 6.76471 15.5883 6.76471H24.4118C26.3609 6.76471 27.9412 6.76471 27.9412 6.76471V13.8235ZM20.8824 10.2941H19.1177V12.0588H20.8824V10.2941ZM19.1177 19.1176H20.8824V20.8824H19.1177V19.1176ZM20.8824 27.9412H19.1177V29.7059H20.8824V27.9412Z" fill="#262F40"/>
</svg>
