<svg width="40" height="40" viewBox="0 0 40 40" fill="none" xmlns="http://www.w3.org/2000/svg">
<path fill-rule="evenodd" clip-rule="evenodd" d="M10.294 17.3529V12.0588H29.7058V17.3529H10.294ZM8.5293 19.1176V17.3529V12.0588V10.2941V6.76471V5H10.294H29.7058H31.4705V6.76471V10.2941V12.0588V17.3529V19.1176V22.6471V24.4118V33.2353V35H29.7058H20.8822H19.1175H10.294H8.5293V33.2353V24.4118V22.6471V19.1176ZM10.294 33.2353H19.1175V24.4118H10.294L10.294 33.2353ZM20.8822 33.2353H29.7058V24.4118H20.8822V33.2353ZM29.7058 19.1176V22.6471H10.294V19.1176H29.7058ZM29.7058 10.2941H10.294V6.76471H29.7058V10.2941Z" fill="#262F40"/>
</svg>
