<svg xmlns="http://www.w3.org/2000/svg" width="53" height="31" fill="none" viewBox="0 0 53 31"><g clip-path="url(#a)"><path fill="#F9B50B" d="M52.333 15.5c0 8.505-6.915 15.5-15.5 15.5-8.505 0-15.5-6.995-15.5-15.5S28.25 0 36.753 0c8.665 0 15.58 6.995 15.58 15.5"/><path fill="#C8191C" d="M31.587 15.58c0-1.113-.159-2.226-.318-3.26h-9.538c.08-.556.238-1.033.397-1.669h8.505c-.159-.556-.397-1.113-.636-1.669h-7.233c.238-.556.556-1.033.874-1.67h5.485a11 11 0 0 0-1.192-1.668h-3.02c.476-.557.953-1.034 1.589-1.59C23.797 1.51 20.14 0 16.087 0 7.661.238.667 6.995.667 15.5S7.582 31 16.167 31c4.053 0 7.63-1.59 10.412-4.054.557-.477 1.034-1.033 1.59-1.67h-3.18a11.4 11.4 0 0 1-1.112-1.589h5.405a8.2 8.2 0 0 0 .874-1.669h-7.233a8 8 0 0 1-.636-1.67h8.505c.477-1.43.795-3.02.795-4.768"/><path fill="#fff" d="m21.651 19.475.239-1.431c-.08 0-.239.08-.398.08-.556 0-.636-.319-.556-.478l.477-2.861h.874l.239-1.59h-.795l.159-.954h-1.67s-.953 5.405-.953 6.041c0 .954.556 1.431 1.35 1.431a2.4 2.4 0 0 0 1.034-.239m.557-2.623c0 2.305 1.59 2.862 2.861 2.862 1.193 0 1.749-.239 1.749-.239l.318-1.59s-.874.398-1.749.398c-1.828 0-1.51-1.351-1.51-1.351h3.339s.238-1.034.238-1.51c0-1.034-.556-2.385-2.385-2.385-1.59-.08-2.861 1.748-2.861 3.815m2.861-2.384c.875 0 .716 1.033.716 1.112h-1.829c.08-.08.239-1.113 1.113-1.113m10.413 5.009.318-1.829s-.795.398-1.43.398c-1.114 0-1.67-.875-1.67-1.908 0-1.987.954-3.02 2.146-3.02.795 0 1.51.476 1.51.476l.239-1.748s-.954-.398-1.908-.398c-1.908 0-3.736 1.67-3.736 4.77 0 2.066.954 3.418 2.941 3.418.716.079 1.59-.16 1.59-.16M12.67 12.957a6.4 6.4 0 0 0-1.988.318l-.238 1.43s.715-.317 1.828-.317c.556 0 1.033.08 1.033.556 0 .318-.08.398-.08.398h-.715c-1.43 0-2.94.556-2.94 2.464 0 1.51.953 1.828 1.59 1.828 1.112 0 1.668-.715 1.748-.715l-.08.636h1.352l.636-4.531c0-1.987-1.59-2.067-2.147-2.067m.317 3.656c0 .239-.159 1.59-1.113 1.59-.476 0-.635-.397-.635-.636 0-.397.238-.954 1.51-.954zm3.419 3.02c.398 0 2.464.08 2.464-2.146 0-2.066-1.987-1.669-1.987-2.464 0-.397.318-.556.874-.556.239 0 1.113.08 1.113.08l.239-1.511s-.557-.159-1.59-.159c-1.192 0-2.464.477-2.464 2.146 0 1.908 2.066 1.749 2.066 2.464 0 .477-.556.557-.953.557-.716 0-1.51-.239-1.51-.239l-.239 1.51c.159.16.636.318 1.987.318m32.749-7.948-.318 2.225s-.636-.795-1.59-.795c-1.51 0-2.782 1.829-2.782 3.975 0 1.351.636 2.702 2.067 2.702.954 0 1.59-.636 1.59-.636l-.08.557h1.67l1.192-7.87zm-.795 4.292c0 .874-.398 2.067-1.351 2.067-.557 0-.875-.477-.875-1.352 0-1.351.557-2.146 1.352-2.146.556.08.874.477.874 1.43M3.687 19.554l.954-5.882.159 5.882h1.113l2.146-5.882-.874 5.882h1.748l1.352-7.87H7.582l-1.67 4.85-.079-4.85H3.45l-1.352 7.87z"/><path fill="#fff" d="M29.123 19.554c.477-2.703.556-4.928 1.749-4.531.159-1.033.397-1.51.556-1.908h-.318c-.715 0-1.351.954-1.351.954l.159-.874h-1.59l-1.033 6.359zm10.175-6.597c-1.113 0-1.988.318-1.988.318l-.238 1.43s.715-.317 1.828-.317c.556 0 1.033.08 1.033.556 0 .318-.08.398-.08.398h-.715c-1.43 0-2.94.556-2.94 2.464 0 1.51.953 1.828 1.59 1.828 1.112 0 1.669-.715 1.748-.715l-.08.636h1.51l.637-4.531c0-1.987-1.75-2.067-2.306-2.067m.397 3.656c0 .239-.159 1.59-1.113 1.59-.477 0-.636-.397-.636-.636 0-.397.239-.954 1.51-.954zm3.18 2.941c.477-2.703.557-4.928 1.75-4.531.158-1.033.396-1.51.555-1.908h-.318c-.715 0-1.35.954-1.35.954l.158-.874h-1.59l-1.033 6.359z"/></g><defs><clipPath id="a"><path fill="#fff" d="M0 0h53v31H0z"/></clipPath></defs></svg>