<svg xmlns="http://www.w3.org/2000/svg" width="74" height="23" fill="none" viewBox="0 0 74 23"><path fill="url(#a)" d="M65.54 1H51.585c.813 4.606 5.284 8.942 10.162 8.942h11.11c.135-.407.135-1.084.135-1.49C72.992 4.387 69.605 1 65.54 1"/><path fill="#4FAD50" d="M52.805 10.755V22h6.774v-5.961h5.961c3.252 0 6.097-2.304 7.046-5.284zM28.96 1v20.865h5.961s1.49 0 2.303-1.49a2154 2154 0 0 0 5.284-10.433h.813v11.923h6.774V1h-5.961s-1.49.135-2.303 1.49c-3.387 6.91-5.284 10.433-5.284 10.433h-.813V1zM.508 22V1.136h6.774s1.897 0 2.98 2.98c2.71 7.858 2.982 8.942 2.982 8.942s.542-1.896 2.98-8.942c1.084-2.98 2.98-2.98 2.98-2.98h6.775V22h-6.774V10.755h-.813L14.598 22h-2.98L7.824 10.755h-.813V22z"/><defs><linearGradient id="a" x1="51.5613" x2="72.9439" y1="5.53506" y2="5.53506" gradientUnits="userSpaceOnUse"><stop stop-color="#27B1E6"/><stop offset="1" stop-color="#148ACA"/></linearGradient></defs></svg>