<svg width="40" height="40" viewBox="0 0 40 40" fill="none" xmlns="http://www.w3.org/2000/svg">
<path fill-rule="evenodd" clip-rule="evenodd" d="M6.76471 13.8235V6.76471H19.1176V13.8235H6.76471ZM6.76471 15.5882V22.6471H19.1176V15.5882H6.76471ZM6.76471 24.4118V33.2353H19.1176V24.4118H6.76471ZM5.52907 35H5V5H5.52941H7.29412H19.1176H20.8824H33.2353H35V6.76471V13.8235V15.5882V22.6471V24.4118V35H33.2353H20.8824H19.1176H6.76471H5.52907ZM20.8824 6.76471H33.2353V13.8235H20.8824V6.76471ZM20.8824 15.5882H33.2353V22.6471H20.8824V15.5882ZM20.8824 24.4118H33.2353V33.2353H20.8824V24.4118ZM12.0588 27.9412H13.8235V29.7059H12.0588V27.9412ZM27.9412 27.9412H26.1765V29.7059H27.9412V27.9412Z" fill="#262F40"/>
</svg>
