<svg width="40" height="40" viewBox="0 0 40 40" fill="none" xmlns="http://www.w3.org/2000/svg">
<path fill-rule="evenodd" clip-rule="evenodd" d="M19.1176 5.00005L17.3529 5V10.2941H13.8235V10.3129L10.3129 13.8235H10.2941V15.5882H29.7059V13.8235H29.1994L26.1765 10.8006V10.2941H22.6471V5H20.8824L19.1176 5.00005ZM19.1176 6.77946V10.2941H20.8824V6.77946H19.1176ZM26.6829 13.8235H12.8294L14.5941 12.0588H24.9182L26.6829 13.8235ZM35 24.4118V22.6471H26.1765V20.8824H24.4118V22.6471H15.5882V20.8824H13.8235V22.6471H5V24.4118V33.2353V35H6.76471H19.1176H20.8824H33.2353H35V33.2353V24.4118ZM6.76471 33.2353V24.4118H19.1176V33.2353H6.76471ZM20.8824 33.2353H33.2353V24.4118H20.8824V33.2353ZM27.9412 29.7059H26.1765V27.9412H27.9412V29.7059ZM12.0588 29.7059H13.8235V27.9412H12.0588V29.7059Z" fill="#262F40"/>
</svg>
