<svg width="40" height="40" viewBox="0 0 40 40" fill="none" xmlns="http://www.w3.org/2000/svg">
<path fill-rule="evenodd" clip-rule="evenodd" d="M26.1765 9.41211C29.1004 9.41211 31.4706 9.41211 31.4706 9.41211V16.4709C31.4706 17.8268 31.4706 20.0003 31.4706 20.0003H35V27.0592C35 27.0592 33.4199 27.0592 31.4706 27.0592V30.5886H29.7059V27.0592H10.2941V30.5886H8.52941V27.0592C6.58017 27.0592 5 27.0592 5 27.0592V20.0003H8.52941C8.52941 20.0003 8.52941 17.8268 8.52941 16.4709C8.52941 15.115 8.52941 14.7062 8.52941 14.7062C8.52941 11.7824 8.52941 9.41211 8.52941 9.41211H26.1765ZM10.2941 20.0003H29.7059V15.5886V11.1768H10.2941V15.5886V20.0003ZM26.1765 21.765H13.8235H6.76471V25.2945C6.76471 25.2945 7.5548 25.2945 8.52941 25.2945H31.4706C32.4452 25.2945 33.2353 25.2945 33.2353 25.2945V21.765H26.1765Z" fill="#262F40"/>
</svg>
