<svg width="40.000000" height="40.000000" viewBox="0 0 40 40" fill="none" xmlns="http://www.w3.org/2000/svg" xmlns:xlink="http://www.w3.org/1999/xlink">
	<desc>
			Created with Pixso.
	</desc>
	<defs>
		<clipPath id="clip14_48635">
			<rect id="shelf 1" rx="-0.500000" width="39.000000" height="39.000000" transform="translate(0.500000 0.500000)" fill="white" fill-opacity="0"/>
		</clipPath>
	</defs>
	<rect id="shelf 1" rx="-0.500000" width="39.000000" height="39.000000" transform="translate(0.500000 0.500000)" fill="#FFFFFF" fill-opacity="0"/>
	<g clip-path="url(#clip14_48635)">
		<path id="Vector" d="M10.29 17.35L10.29 12.05L29.7 12.05L29.7 17.35L10.29 17.35ZM8.52 19.11L8.52 17.35L8.52 12.05L8.52 10.29L8.52 6.76L8.52 5L10.29 5L29.7 5L31.47 5L31.47 6.76L31.47 10.29L31.47 12.05L31.47 17.35L31.47 19.11L31.47 22.64L31.47 24.41L31.47 33.23L31.47 35L29.7 35L20.88 35L19.11 35L10.29 35L8.52 35L8.52 33.23L8.52 24.41L8.52 22.64L8.52 19.11ZM10.29 33.23L19.11 33.23L19.11 24.41L10.29 24.41L10.29 33.23ZM20.88 33.23L29.7 33.23L29.7 24.41L20.88 24.41L20.88 33.23ZM29.7 19.11L29.7 22.64L10.29 22.64L10.29 19.11L29.7 19.11ZM29.7 10.29L10.29 10.29L10.29 6.76L29.7 6.76L29.7 10.29Z" fill="#262F40" fill-opacity="1.000000" fill-rule="evenodd"/>
	</g>
</svg>
