<svg width="40" height="40" viewBox="0 0 40 40" fill="none" xmlns="http://www.w3.org/2000/svg">
<path fill-rule="evenodd" clip-rule="evenodd" d="M6.76471 8.52942H8.52941V10.2941L31.4706 10.2941V8.52942H33.2353V20.8824C34.2099 20.8824 35 20.8824 35 20.8824V29.7059C35 29.7059 34.2099 29.7059 33.2353 29.7059V31.4706H31.4706V29.7059H8.52941V31.4706H6.76471V29.7059C5.79009 29.7059 5 29.7059 5 29.7059V20.8824C5 20.8824 5.79009 20.8824 6.76471 20.8824V12.0588V10.2941V8.52942ZM8.52941 20.8824H12.0588V15.5882C12.0588 15.5882 12.8489 15.5882 13.8235 15.5882H26.1765C27.1511 15.5882 27.9412 15.5882 27.9412 15.5882V20.8824H31.4706V12.0588H8.52941V20.8824ZM26.1765 20.8824V17.3529C26.1765 17.3529 25.3864 17.3529 24.4118 17.3529H15.5882C14.6136 17.3529 13.8235 17.3529 13.8235 17.3529V20.8824H26.1765ZM13.8235 22.6471H6.76471C6.76471 22.6471 6.76471 23.4371 6.76471 24.4118V26.1765C6.76471 27.1511 6.76471 27.9412 6.76471 27.9412H33.2353C33.2353 27.9412 33.2353 27.1511 33.2353 26.1765V22.6471C33.2353 22.6471 32.4452 22.6471 31.4706 22.6471H26.1765H13.8235Z" fill="#262F40"/>
</svg>
