<svg xmlns="http://www.w3.org/2000/svg" xmlns:xlink="http://www.w3.org/1999/xlink">
	<defs>
		<symbol viewBox="0 0 26 16" id="ic-burger">
			<rect width="26" height="2"/>
			<rect y="7" width="26" height="2"/>
			<rect y="14" width="18" height="2"/>
		</symbol>

		<symbol viewBox="0 0 15 15" id="ic-floorplan">
			<polygon points="15,15 0,15 0,0 4.7,0 7.8,2.1 7.2,2.9 4.3,1 1,1 1,14 6,14 6,8 4,8 4,7 9,7 9,8 7,8 7,14 14,14 14,8 12,8 12,7 14,7 14,1 10,1 10,0 15,0 "/>
		</symbol>

		<symbol viewBox="0 0 20 20" id="ic-close">
			<rect x="9" y="-3.2" transform="matrix(0.7071 -0.7071 0.7071 0.7071 -4.1421 10)" width="1.9" height="26.4"/>
			<rect x="-3.2" y="9" transform="matrix(0.7071 -0.7071 0.7071 0.7071 -4.1421 10)" width="26.4" height="1.9"/>
		</symbol>

		<symbol viewBox="0 0 7 12" id="ic-arr-right">
			<polygon points="0,10.5 4.4,6 0,1.4 1.3,0 7,6 1.3,12 "/>
		</symbol>

		<symbol viewBox="0 0 16 16" id="ic-arr">
			<rect x="-2.1" y="7.2" transform="matrix(0.7071 -0.7071 0.7071 0.7071 -3.6318 7.8682)" width="19.6" height="2.2"/>
			<rect x="1.4" y="0" width="14.6" height="2.2"/>
			<rect x="13.8" y="0" width="2.2" height="14.6"/>
		</symbol>


		<symbol viewBox="0 0 17 11" id="ic-balcony">
			<path fill-rule="evenodd" clip-rule="evenodd" d="M1 0H0V11H1H8H9H16H17V0H16H9H8H1ZM16 10V6L9 6V10H16ZM8 10V6L1 6L1 10H8ZM8 5H1L1 1L8 1V5ZM16 5H9V1L16 1V5ZM12 2H13V4H12V2ZM13 7H12V9H13V7ZM4 2H5V4H4V2ZM5 7H4V9H5V7Z"/>
		</symbol>

		<symbol viewBox="0 0 15 17" id="ic-library">
			<path fill-rule="evenodd" clip-rule="evenodd" d="M9 0H6H5V1L5 4H2H1V5V7V8L1 15H0V16H2V17H3V16H12V17H13V16H15V15H14L14 8V7V5V4H13H10V1V0H9ZM2 14H3V15H5V13V12V8H2L2 14ZM2 7H5V5H2L2 7ZM6 4V1H9L9 4V5V7V8V12H6L6 8V7V5V4ZM9 15H6V13H9V15ZM13 8L13 14H12V15H10L10 13V12L10 8H13ZM13 5H10V7H13V5Z"/>
		</symbol>

		<symbol viewBox="0 0 13 17" id="ic-buffets">
			<path fill-rule="evenodd" clip-rule="evenodd" d="M0 1.5C0 0.671573 0.671573 0 1.5 0H11.5C12.3284 0 13 0.671573 13 1.5V15.5C13 16.3284 12.3284 17 11.5 17H1.5C0.671573 17 0 16.3284 0 15.5V1.5ZM11 1C11.5523 1 12 1.44772 12 2V10H7L7 1H11ZM6 1L2 1C1.44772 1 1 1.44772 1 2V10H6L6 1ZM1 11H12V15C12 15.5523 11.5523 16 11 16H2C1.44771 16 1 15.5523 1 15V11ZM8 13H5V14H8V13Z"/>
		</symbol>
		
		<symbol viewBox="0 0 17 19" id="ic-bathroom">
			<path fill-rule="evenodd" clip-rule="evenodd" d="M14.9102 0.210571L14.9298 0.230255L14.9337 0.226426L16.7072 2H17V9V12C17 13.711 16.1406 15.2213 14.8298 16.1227L16.1213 17.4142L15.4142 18.1213L14 16.7071L14.2314 16.4757C13.5597 16.8112 12.8019 17 12 17H5C4.28749 17 3.60979 16.851 2.99637 16.5824L3.12109 16.7071L1.70688 18.1213L0.999773 17.4142L2.24247 16.1715C0.89113 15.2764 0 13.7423 0 12V9H16V2.70697L14.914 1.62096L13.621 2.91391L14.6291 3.92194L13.922 4.62905L11 1.70709L11.7071 0.999986L12.9139 2.2068L14.9102 0.210571ZM5 10H9V12H5V10ZM9 13H5H4V10H1V11.5C1 13.9853 3.01472 16 5.5 16H11.5C13.9853 16 16 13.9853 16 11.5V10H10V13H9Z"/>
		</symbol>

		<symbol viewBox="0 0 11 17" id="ic-showcases">
			<path fill-rule="evenodd" clip-rule="evenodd" d="M1 0H0V1V5V6V11V12V16V17H1H5H6H10H11V0H10H1ZM10 1L1 1V5H2V4V3L6 3V4V5L10 5V1ZM5 4H3V5H5V4ZM5 6H3H2H1V11H5V8H6H9V9V11H10V6L6 6H5ZM6 9H8V11H6V9ZM1 16V12H5V16H1ZM6 16V12H10V16H6Z"/>
		</symbol>

		<symbol viewBox="0 0 17 15" id="ic-dress-room">
			<path fill-rule="evenodd" clip-rule="evenodd" d="M6.4447 1.1553C6.17874 1.57214 6.04236 2.05847 6.05281 2.55282L7.06597 2.53141C7.05976 2.23746 7.14086 1.94826 7.29901 1.70039C7.45716 1.45252 7.68526 1.25712 7.95447 1.13889C8.22367 1.02066 8.52189 0.984916 8.81141 1.03617C9.10093 1.08743 9.36875 1.22339 9.581 1.42686C9.79325 1.63033 9.9404 1.89217 10.0038 2.17926C10.0673 2.46636 10.0442 2.76582 9.9374 3.03978C9.83065 3.31374 9.64505 3.54989 9.40409 3.71837C9.16312 3.88684 8.8776 3.98008 8.58365 3.98629L8.58394 4H8V7H7.26556C7.09154 7 6.92052 7.04542 6.76943 7.13176L0.503861 10.7121C0.192286 10.8901 0 11.2215 0 11.5803V13C0 14.1046 0.89543 15 2 15H15C16.1046 15 17 14.1046 17 13V11.5803C17 11.2215 16.8077 10.8901 16.4961 10.7121L10.2306 7.13176C10.0795 7.04542 9.90846 7 9.73444 7H9V4.95959C9.35247 4.89543 9.68862 4.75595 9.98477 4.54889C10.39 4.26557 10.7021 3.86844 10.8816 3.40773C11.0612 2.94702 11.1 2.44342 10.9934 1.96061C10.8867 1.47781 10.6392 1.03748 10.2823 0.695308C9.92535 0.353139 9.47496 0.124498 8.98808 0.0382986C8.5012 -0.0479007 7.99969 0.0122131 7.54697 0.211038C7.09425 0.409863 6.71066 0.738469 6.4447 1.1553ZM7.44011 8C7.2673 8 7.09744 8.04478 6.9471 8.12998L1.50699 11.2127C1.19366 11.3903 1 11.7226 1 12.0827V13C1 13.5523 1.44772 14 2 14H15C15.5523 14 16 13.5523 16 13V12.0827C16 11.7226 15.8063 11.3903 15.493 11.2127L10.0529 8.12998C9.90256 8.04478 9.7327 8 9.55989 8H7.44011Z"/>
		</symbol>

		<symbol viewBox="0 0 13 17" id="ic-wardrobes">
			<path fill-rule="evenodd" clip-rule="evenodd" d="M0 0H1H6H7H12H13V17H12H7H6H1H0V0ZM1 16H6V1L1 1L1 16ZM7 16H12V1L7 1V16ZM3 7H4V10H3V7ZM10 7H9V10H10V7Z"/>
		</symbol>

		<symbol viewBox="0 0 15 18" id="ic-curbstones">
			<path fill-rule="evenodd" clip-rule="evenodd" d="M0 7V13V14H1H1.76721L0.99988 16.8637L1.96581 17.1225L2.80248 14H12.1985L13.0352 17.1225L14.0011 16.8637L13.2338 14H14H15V13V7V6V1V0H14H1H0V1V6V7ZM12.9658 13H14V7L1 7V13L2.03516 13H12.9658ZM1 6L14 6V1L1 1V6ZM9 4V3L6 3V4H9Z"/>
		</symbol>

		<symbol viewBox="0 0 18 13" id="ic-table">
			<path fill-rule="evenodd" clip-rule="evenodd" d="M17.2773 2C17.2773 0.895431 16.3819 0 15.2773 0H2.27734C1.17277 0 0.277344 0.89543 0.277344 2V3C0.277344 4.03333 1.061 4.88364 2.06643 4.98901L0.000218451 12.7002L0.966144 12.959L3.09876 5H14.474L16.6066 12.959L17.5725 12.7002L15.5058 4.98709C16.5028 4.87372 17.2773 4.02731 17.2773 3V2ZM16.2773 2.5C16.2773 1.67157 15.6058 1 14.7773 1H2.77734C1.94892 1 1.27734 1.67157 1.27734 2.5C1.27734 3.32843 1.94892 4 2.77734 4H14.7773C15.6058 4 16.2773 3.32843 16.2773 2.5Z"/>
		</symbol>

		<symbol viewBox="0 0 18 17" id="ic-wall">
			<path fill-rule="evenodd" clip-rule="evenodd" d="M1.3 5L1.3 1.3H8V5H1.3ZM1.3 6.3L1.3 10H8L8 6.3H1.3ZM1.3 11.3L1.3 16H8V11.3H1.3ZM0.299805 17H0V0H0.300001H1.3H8H9.3H16H17.3V1.3V5V6.3V10V11.3V17H17.2998H16H9.3H8H1.3H0.299805ZM9.3 1.3H16V5H9.3V1.3ZM9.3 6.3H16L16 10H9.3L9.3 6.3ZM9.3 11.3H16V16H9.3V11.3ZM4.3 13H5.3V14.3H4.3V13ZM13.3 13H12.3V14.3H13.3V13Z"/>
		</symbol>

		<symbol viewBox="0 0 13 17" id="ic-shelf">
			<path fill-rule="evenodd" clip-rule="evenodd" d="M1 7L1 4H12V7H1ZM0 8V7V4V3V1V0H1H12H13V1V3V4V7V8V10V11V16L13 17H12H7H6H0.999999H0V16V11V10V8ZM0.999999 16H6V11H1L0.999999 16ZM7 16H12L12 11H7L7 16ZM12 8V10H1L1 8H12ZM12 3H1L1 1H12V3Z"/>
		</symbol>

		<symbol viewBox="0 0 13 17" id="ic-bedroom">
			<path fill-rule="evenodd" clip-rule="evenodd" d="M13 0H0V1L1 1L1 12V13V14V15H2L2 17H3V15H10V17H11V15H12V14V13V12V1H13V0ZM11 1L7 1L7 12H11V1ZM11 13H2L2 14H11V13ZM2 12L2 1L6 1L6 12H2ZM9 8V6H8V8H9ZM5 6V8H4V6H5Z"/>
		</symbol>
		
		<symbol viewBox="0 0 18 15" id="ic-poof">
			<path  d="M5 8.5V8.5C5.96043 9.46043 7.26306 10 8.62132 10H9.37868C10.7369 10 12.0396 9.46043 13 8.5V8.5M11 14C13.8333 13.8333 17.5 12.8 17.5 10C17.5 6.5 11.5 1 9 1C7 1 1 6.5 1 10C1 13.5 6 14 8 14H11Z"/>
		</symbol>

		<symbol viewBox="0 0 17 13" id="ic-hallway">
			<path fill-rule="evenodd" clip-rule="evenodd" d="M1 0H2V0.999999L15 1V0H16V7C16.5523 7 17 7.44772 17 8V11C17 11.5523 16.5523 12 16 12V13H14V12H3V13H1L1 12C0.447715 12 0 11.5523 0 11V8C0 7.44772 0.447715 7 1 7L1 2L1 0.999999V0ZM2 7H4V5C4 4.44772 4.44772 4 5 4H12C12.5523 4 13 4.44772 13 5V7H15V2L2 2V7ZM11 7C11.5523 7 12 6.55228 12 6C12 5.44772 11.5523 5 11 5H6C5.44772 5 5 5.44772 5 6C5 6.55228 5.44772 7 6 7H11ZM5 8H2C1.44772 8 1 8.44771 1 9V10C1 10.5523 1.44772 11 2 11H15C15.5523 11 16 10.5523 16 10V9C16 8.44772 15.5523 8 15 8H12H5Z"/>
		</symbol>

		<symbol viewBox="0 0 17 12" id="ic-furniture">
			<path fill-rule="evenodd" clip-rule="evenodd" d="M12 0C13.6569 0 15 1.34315 15 3V4C15 4.76835 14.7111 5.46924 14.2361 6H15C16.1046 6 17 6.89543 17 8C17 9.10457 16.1046 10 15 10V12H14V10H3V12H2L2 10C0.89543 10 0 9.10457 0 8C0 6.89543 0.895431 6 2 6H2.76389C2.28885 5.46924 2 4.76835 2 4V3C2 1.34315 3.34315 0 5 0H12ZM5.36646 6H11.6331C13.0138 6 14.1331 4.88071 14.1331 3.5C14.1331 2.11929 13.0138 1 11.6331 1H5.36646C3.98574 1 2.86646 2.11929 2.86646 3.5C2.86646 4.88071 3.98574 6 5.36646 6ZM12 7H5H2C1.44772 7 1 7.44772 1 8C1 8.55228 1.44772 9 2 9H15C15.5523 9 16 8.55228 16 8C16 7.44772 15.5523 7 15 7H12Z"/>
		</symbol>

		<symbol viewBox="0 0 17 17" id="ic-modular-furniture">
			<path fill-rule="evenodd" clip-rule="evenodd" d="M3 2C3 0.89543 3.89543 0 5 0H12C13.1046 0 14 0.895431 14 2V4C14 5.10457 13.1046 6 12 6V8H16C16.5522 8 17 8.44769 17 9V11V12V15C17 15.5523 16.5522 16 16 16V17H14V16H3V17H1V16C0.447754 16 0 15.5523 0 15V12V11V9C0 8.44769 0.447754 8 1 8H5V6C3.89543 6 3 5.10457 3 4V2ZM11 8V6H6V8H8H9H11ZM4 3C4 1.89543 4.89543 1 6 1H11C12.1046 1 13 1.89543 13 3C13 4.10457 12.1046 5 11 5H6C4.89543 5 4 4.10457 4 3ZM2 9C1.44775 9 1 9.44769 1 10V11H8V9H2ZM15 9C15.5522 9 16 9.44769 16 10V11H9V9H15ZM8 12H1V14C1 14.5523 1.44775 15 2 15H8V12ZM15 15C15.5522 15 16 14.5523 16 14V12H9V15H15Z"/>
		</symbol>

		<symbol viewBox="0 0 13 17" id="ic-mattress">
			<path fill-rule="evenodd" clip-rule="evenodd" d="M1 0C0.447715 0 0 0.447715 0 1V16C0 16.5523 0.447715 17 1 17H12C12.5523 17 13 16.5523 13 16V1C13 0.447715 12.5523 0 12 0H1ZM2 1C1.44772 1 1 1.44772 1 2V15C1 15.5523 1.44771 16 2 16H11C11.5523 16 12 15.5523 12 15V2C12 1.44772 11.5523 1 11 1H2ZM8 4V5H7V6H6V5H5V4H6V3H7V4H8ZM8 13V12H7V11H6V12H5V13H6V14H7V13H8Z"/>
		</symbol>

		<symbol viewBox="0 0 17 17" id="ic-kitchen">
			<path fill-rule="evenodd" clip-rule="evenodd" d="M8 2.95148e-05V0H7V3H5V3.01065L3.01065 5H3V6H14V5H13.713L12 3.28702V3H10V0H9V2.96022e-05L8 2.95148e-05ZM8 1.00836V3H9V1.00836H8ZM12.287 5H4.43665L5.43665 4H11.287L12.287 5ZM17 11V10H12V9H11V10H6V9H5V10L0 10V11V16V17H1L8 17H9H16H17V16V11ZM1 16L1 11H8L8 16H1ZM9 16H16V11H9V16ZM13 14H12V13H13V14ZM4 14H5V13H4V14Z"/>
		</symbol>

		<symbol viewBox="0 0 17 13" id="ic-bed">
			<path fill-rule="evenodd" clip-rule="evenodd" d="M1 2C1 0.895431 1.89543 0 3 0H14C15.1046 0 16 0.895431 16 2V6C16 6.41166 15.8756 6.79427 15.6624 7.11231C16.4414 7.38566 17 8.1276 17 9V10C17 11.1046 16.1046 12 15 12V13H13V12H4V13H2L2 12C0.89543 12 0 11.1046 0 10V9C0 8.1276 0.558572 7.38566 1.33759 7.11231C1.12437 6.79427 1 6.41166 1 6V2ZM3 7H4V6C4 4.89543 4.89543 4 6 4H7C7.59735 4 8.13353 4.26188 8.5 4.67709C8.86647 4.26188 9.40265 4 10 4H11C12.1046 4 13 4.89543 13 6V7H14C14.5523 7 15 6.55228 15 6V2C15 1.44772 14.5523 1 14 1H3C2.44772 1 2 1.44772 2 2V6C2 6.55228 2.44772 7 3 7ZM9 8H8H4H3H2C1.44772 8 1 8.44771 1 9V10C1 10.5523 1.44772 11 2 11H15C15.5523 11 16 10.5523 16 10V9C16 8.44772 15.5523 8 15 8H14H13H9ZM8 7V6C8 5.44772 7.55228 5 7 5H6C5.44772 5 5 5.44772 5 6V7H8ZM12 7V6C12 5.44772 11.5523 5 11 5H10C9.44772 5 9 5.44772 9 6V7H12Z"/>
		</symbol>

		<symbol viewBox="0 0 17 18" id="ic-armchair">
			<path fill-rule="evenodd" clip-rule="evenodd" d="M2 8V5.5C2 2.46243 4.46243 0 7.5 0H9.5C12.5376 0 15 2.46243 15 5.5V8H17V9C17 11.5361 15.4266 13.7046 13.2027 14.5828L14.3662 16.5981L13.5002 17.0981L12.2175 14.8764C11.8243 14.9574 11.4171 15 11 15H6C5.38407 15 4.78982 14.9072 4.23046 14.7348L2.86603 17.0981L2 16.5981L3.29409 14.3566C1.33975 13.3675 0 11.3402 0 9V8H2ZM3 8H4L4.82843 8.82843C5.57857 9.57857 6.59599 10 7.65685 10H9.34315C10.404 10 11.4214 9.57857 12.1716 8.82843L13 8H14V6C14 3.23858 11.7614 1 9 1H8C5.23858 1 3 3.23858 3 6V8ZM1 9H3.5L4.62132 10.1213C5.18393 10.6839 5.94699 11 6.74264 11H10.2574C11.053 11 11.8161 10.6839 12.3787 10.1213L13.5 9H16C16 11.7614 13.7614 14 11 14H6C3.23858 14 1 11.7614 1 9Z"/>
		</symbol>

		<symbol viewBox="0 0 17 17" id="ic-cabinet-furniture">
			<path fill-rule="evenodd" clip-rule="evenodd" d="M1 0H0V17H1L1 9H8V11V12V14V15H9L16 15V17H17V15V14V12V11V9V8V5V4V1V0H16H12H11H1ZM9 14H16V12L9 12V14ZM9 11H16V9H9V11ZM9 8H11V1L1 1L1 8L5 8V7H4H3V6V4V3L9 3V4V6V7H8H7V8H8H9ZM8 4V6L4 6V4H8ZM16 8H12V5H16V8ZM16 4L12 4V1L16 1V4Z"/>
		</symbol>

		<symbol viewBox="0 0 9 17" id="ic-console">
			<path fill-rule="evenodd" clip-rule="evenodd" d="M0 16V9V8V1V0H1H8H9V1V8V9V16V17H8H1H0V16ZM1 16L8 16V9L1 9V16ZM8 8L1 8V1L8 1V8ZM6 3.5V2L3 2V3.5L6 3.5ZM6 10V11.5H3V10H6Z"/>
		</symbol>

		<symbol viewBox="0 0 11 17" id="ic-dresser">
			<path fill-rule="evenodd" clip-rule="evenodd" d="M0 2C0 0.895447 0.895508 0 2 0H9C10.1045 0 11 0.895447 11 2V5V6V10V11V14C11 14.7403 10.5978 15.3866 10 15.7324V17H9V16H2V17H1V15.7324C0.402218 15.3866 0 14.7403 0 14V11V10V6V5V2ZM10 10H1V6H10V10ZM1 13V11H10V13C10 14.1046 9.10449 15 8 15H3C1.89551 15 1 14.1046 1 13ZM10 5H1V3C1 1.89545 1.89551 1 3 1H8C9.10449 1 10 1.89545 10 3V5ZM6 3H5V4H6V3ZM5 8H6V9H5V8ZM6 13H5V14H6V13Z"/>
		</symbol>

		<symbol viewBox="0 0 14 17" id="ic-cabinet-office">
			<path fill-rule="evenodd" clip-rule="evenodd" d="M4.76773 3.47482L4.70703 3.53552L3.99992 2.82842L4.06062 2.76772L4 2.70709L4.70711 1.99999L4.76773 2.06061L6.06056 0.767777L6 0.707214L6.70711 0.000107646L6.76767 0.0606706L6.82835 -1.13845e-05L7.53546 0.707095L7.47478 0.767778L8.76767 2.06067L8.82835 1.99999L9.03685 2.20849L12.6512 3.17695L12.7307 3.09741L13.4379 3.80452L7.87109 9.37128L7.25085 8.75103L7.20685 8.76282L7.18643 8.68662L7.16399 8.66417L7.17695 8.65121L6.20853 5.03702L5.99992 4.82842L6.06062 4.76772L5.97485 4.68195L3.70703 6.94977L3.69464 6.93738C3.88811 7.24525 4 7.60956 4 8C4 8.65033 3.68957 9.22817 3.20883 9.59344L6.90766 16H10V17H4V16H5.75296L2.27781 9.98086C2.18701 9.99348 2.09427 10 2 10C0.895508 10 0 9.10455 0 8C0 6.89545 0.895508 6 2 6C2.39043 6 2.75475 6.11189 3.06262 6.30536L2.99992 6.24266L5.26775 3.97484L4.76773 3.47482ZM7.99344 7.83471L11.8347 3.99345L9.00683 3.23572L7.23572 5.00684L7.99344 7.83471ZM8.05468 2.76189L8.05037 2.77798L6.77802 4.05032L6.76179 4.05467L5.47484 2.76772L6.76767 1.47488L8.05468 2.76189ZM2 9C2.55273 9 3 8.55231 3 8C3 7.44769 2.55273 7 2 7C1.44727 7 1 7.44769 1 8C1 8.55231 1.44727 9 2 9Z"/>
		</symbol>

		<symbol viewBox="0 0 17 11" id="ic-sofa">
			<path fill-rule="evenodd" clip-rule="evenodd" d="M8 0H3H2V1V3H1C0.447715 3 0 3.44772 0 4V6C0 7.86384 1.27477 9.42994 3 9.87398V11H4V10H13V11H14V9.87398C15.7252 9.42994 17 7.86384 17 6V4C17 3.44772 16.5523 3 16 3H15V1V0H14H9H8ZM14 1L9 1V6H13V4C13 3.44772 13.4477 3 14 3V1ZM3 3V1L8 1V6H4V4C4 3.44772 3.55228 3 3 3ZM4 8.99994H13C14.6569 8.99994 16 7.65679 16 5.99994V4.49994C16 4.2238 15.7761 3.99994 15.5 3.99994H14.5C14.2239 3.99994 14 4.2238 14 4.49994V7L3 7.00006V4.49998C3 4.22385 2.77615 3.99999 2.50002 3.99998L1.50002 3.99995C1.22387 3.99995 1 4.22381 1 4.49995V5.99994C1 7.65679 2.34315 8.99994 4 8.99994Z"/>
		</symbol>

		<symbol viewBox="0 0 18 18" id="ic-child-room">
			<path fill-rule="evenodd" clip-rule="evenodd" d="M9 18C13.9707 18 18 13.9706 18 9C18 6.4825 16.9664 4.20642 15.3004 2.57302C15.2882 2.56042 15.276 2.54792 15.2636 2.53552C15.2205 2.49249 15.1763 2.45103 15.1309 2.41113C13.5239 0.915126 11.3688 0 9 0C4.0293 0 0 4.02942 0 9C0 11.371 0.916846 13.5279 2.41537 15.1355C2.45401 15.1792 2.4941 15.2219 2.53564 15.2634C2.54656 15.2744 2.55756 15.2852 2.56863 15.2959C4.20233 16.9645 6.48021 18 9 18ZM17 9C17 7.72153 16.7001 6.5131 16.1668 5.44122C16.0167 7.55319 14.6876 10.1825 12.4351 12.435C10.1825 14.6876 7.55306 16.0167 5.44104 16.1667C6.51299 16.7 7.72149 17 9 17C13.418 17 17 13.4183 17 9ZM14.5934 3.28047C14.5452 3.23335 14.4964 3.18684 14.4471 3.14095C13.7541 2.54271 12.6837 2.43245 11.4469 2.73982L15.0592 6.3522C15.3774 5.07199 15.2481 3.97004 14.5934 3.28047ZM14.7084 7.41562L10.3834 3.09061C8.98327 3.65977 7.4605 4.68169 6.07117 6.07102C3.01478 9.12741 1.73649 12.8296 3.14503 14.4515C3.18824 14.4979 3.232 14.5437 3.27629 14.5891C4.85865 16.1004 8.62597 14.8299 11.728 11.7279C13.1174 10.3385 14.1393 8.81577 14.7084 7.41562ZM9 1C10.1232 1 11.1924 1.23151 12.1624 1.64941C10.0852 1.86468 7.54759 3.18042 5.36407 5.36394C3.18042 7.54759 1.86465 10.0854 1.6495 12.1626C1.23154 11.1926 1 10.1233 1 9C1 4.58173 4.58203 1 9 1Z"/>
		</symbol>

		<symbol viewBox="0 0 18 17" id="ic-living-room">
			<path fill-rule="evenodd" clip-rule="evenodd" d="M12.0615 0H11.8906H5.20215H5.06152V0.208374L3.17773 3H3.06152V3.17212V7H1.06152H0.0615234V11.767L0 11.8284L0.0615234 11.89V12H0.171875L4.06152 15.8894V16V17H5.06152V16H12.0615V17H13.0615V16V15.7781L16.8398 12H17.0615V8V7H16.0615H14.0615V3H13.915L12.0615 0.253235V0ZM13.0615 3.52319V7H12.0615V9H9.46245L10.3662 7.48419L9.50019 7.00002L8.68311 8.37044L7.86603 7.00002L7 7.48419L7.90377 9H5.06152V8V7H4.06152V3.47833L5.73438 1H11.3584L13.0615 3.52319ZM8.86619 10H8.50003L8.5 10L8.49999 10H5.06152V12H12.0615V10H8.86622L8.86621 10L8.86619 10ZM13.0615 8V9V10V12V13H4.06152V12V10V9V8H1.06152V11.4749L4.58594 15H12.4258L16.0615 11.3636V8H13.0615Z"/>
		</symbol>

		<symbol viewBox="0 0 17 14" id="ic-headset">
			<path fill-rule="evenodd" clip-rule="evenodd" d="M17 0H0V1V10V11H2.92284L1.50019 13.4641L2.36621 13.9641L4.07754 11H13.2887L15 13.9641L15.866 13.4641L14.4434 11H17V10V1V0ZM16 1L12 1V10H13.866H16V1ZM11 1V10H6L6 1L11 1ZM5 10H3.50019H1L1 1L5 1L5 10Z"/>
		</symbol>

		<symbol viewBox="0 0 19 19" id="ic-snow">
			<path fill-rule="evenodd" clip-rule="evenodd" d="M9.24166 0.0494266C9.17468 0.0836043 9.08283 0.163501 9.03756 0.226958C8.95959 0.336282 8.95466 0.384821 8.94397 1.1495C8.93777 1.5934 8.91877 1.95663 8.90177 1.95663C8.87368 1.95663 8.77085 1.88775 8.37597 1.60446C8.181 1.46456 8.01263 1.44782 7.80601 1.54787C7.53066 1.68116 7.42059 1.97982 7.54079 2.26749C7.64503 2.51698 8.21878 2.92258 8.67485 3.06924L8.93669 3.15344V4.20638C8.93669 4.78551 8.92757 5.25936 8.9164 5.25936C8.90523 5.25936 8.36666 4.84181 7.71962 4.33148C6.94184 3.71802 6.49597 3.39057 6.40398 3.36519C6.15063 3.29531 5.88437 3.42712 5.74982 3.68904C5.72109 3.74496 5.70818 4.22583 5.70818 5.23836C5.70818 6.04589 5.69905 6.70663 5.68788 6.70663C5.67675 6.70663 5.34692 6.52828 4.95497 6.3103C4.56302 6.09232 4.23995 5.91278 4.23701 5.91137C4.23408 5.90993 4.2546 5.80023 4.28262 5.66756C4.37747 5.21861 4.3207 4.56278 4.16406 4.2976C4.08316 4.16063 3.86024 4.03475 3.69863 4.03475C3.53008 4.03475 3.33366 4.14463 3.22753 4.2983C3.13546 4.43156 3.13435 4.47413 3.20682 5.08309C3.22493 5.23513 3.21981 5.29647 3.18905 5.29647C3.1653 5.29647 2.87491 5.14376 2.54371 4.9571C2.21255 4.77048 1.88647 4.60505 1.81915 4.58954C1.42249 4.49802 1.05693 4.89751 1.17542 5.29298C1.23453 5.49037 1.33191 5.56655 2.00667 5.94336C2.33809 6.12843 2.60932 6.29657 2.6094 6.31698C2.60951 6.34923 2.41962 6.45328 2.0158 6.64209C1.65012 6.81309 1.64452 7.37259 2.00618 7.59963C2.28829 7.77675 2.89314 7.57272 3.43512 7.11765L3.70297 6.89273L4.40872 7.28724C4.79685 7.50422 5.11391 7.69195 5.11324 7.70446C5.11261 7.71693 4.60763 8.02843 3.99113 8.39666C2.75769 9.13336 2.70232 9.1803 2.70232 9.48983C2.70232 9.79936 2.75769 9.8463 3.99113 10.583C4.60763 10.9512 5.11261 11.2627 5.11324 11.2752C5.11391 11.2877 4.79685 11.4754 4.40872 11.6924L3.70297 12.0869L3.43512 11.862C2.89314 11.4069 2.28829 11.2029 2.00618 11.38C1.64452 11.6071 1.65012 12.1666 2.0158 12.3376C2.41921 12.5262 2.60955 12.6304 2.60955 12.6626C2.60955 12.6829 2.33831 12.8511 2.00682 13.0362C1.33191 13.4131 1.23453 13.4893 1.17542 13.6867C1.06476 14.056 1.33413 14.402 1.72616 14.3942C1.85663 14.3916 2.00336 14.3253 2.51629 14.0371C2.86271 13.8424 3.16552 13.6832 3.18919 13.6832C3.21981 13.6832 3.22489 13.7449 3.20682 13.8966C3.13435 14.5055 3.13546 14.5481 3.22753 14.6814C3.46343 15.0229 3.90489 15.0247 4.15556 14.6851C4.31368 14.4709 4.37951 13.7725 4.2844 13.3185C4.23716 13.0931 4.23831 13.0818 4.31298 13.0356C4.49329 12.9241 5.66554 12.273 5.68591 12.273C5.69816 12.273 5.70818 12.9338 5.70818 13.7413C5.70818 14.7538 5.72109 15.2347 5.74982 15.2906C5.88437 15.5525 6.15063 15.6843 6.40398 15.6145C6.49597 15.5891 6.94184 15.2616 7.71962 14.6482C8.36666 14.1379 8.90523 13.7203 8.9164 13.7203C8.92757 13.7203 8.93669 14.1941 8.93669 14.7733V15.8262L8.67485 15.9104C8.21878 16.0571 7.64503 16.4627 7.54079 16.7122C7.42059 16.9998 7.53066 17.2985 7.80601 17.4318C8.01263 17.5318 8.181 17.5151 8.37597 17.3752C8.77356 17.09 8.87387 17.023 8.90378 17.023C8.92189 17.023 8.93669 17.367 8.93669 17.7874C8.93669 18.6366 8.95781 18.7349 9.17319 18.8885C9.33514 19.004 9.65153 19.004 9.81348 18.8885C10.0289 18.7349 10.05 18.6366 10.05 17.7874C10.05 17.367 10.0648 17.023 10.0829 17.023C10.1128 17.023 10.2131 17.09 10.6107 17.3752C10.8057 17.5151 10.974 17.5318 11.1807 17.4318C11.456 17.2985 11.5661 16.9998 11.4459 16.7122C11.3416 16.4627 10.7679 16.0571 10.3118 15.9104L10.05 15.8262V14.7733C10.05 14.1941 10.0595 13.7203 10.0711 13.7203C10.0827 13.7203 10.6213 14.1379 11.2679 14.6482C12.046 15.2624 12.4906 15.5891 12.5827 15.6145C12.8361 15.6843 13.1023 15.5525 13.2369 15.2906C13.2656 15.2347 13.2785 14.7538 13.2785 13.7413C13.2785 12.9338 13.2886 12.273 13.3009 12.273C13.3257 12.273 14.6459 13.0077 14.7103 13.0573C14.739 13.0794 14.7366 13.1549 14.7018 13.3208C14.6074 13.7715 14.6712 14.4695 14.8259 14.6784C15.0818 15.024 15.5271 15.0272 15.7584 14.6851C15.8512 14.5479 15.8524 14.5061 15.7798 13.8966C15.7618 13.7449 15.7669 13.6832 15.7975 13.6832C15.8212 13.6832 16.124 13.8424 16.4704 14.0371C16.9833 14.3253 17.13 14.3916 17.2605 14.3942C17.6525 14.402 17.9219 14.056 17.8113 13.6867C17.7523 13.49 17.6565 13.4147 16.9839 13.0367C16.6543 12.8514 16.3828 12.6831 16.3808 12.6627C16.3776 12.6304 16.5628 12.5284 16.9709 12.3376C17.3366 12.1666 17.3422 11.6071 16.9805 11.38C16.702 11.2052 16.0855 11.4129 15.5521 11.8613L15.2837 12.0869L14.578 11.6924C14.1898 11.4754 13.8729 11.2877 13.8737 11.2752C13.8744 11.2627 14.3796 10.9519 14.9962 10.5846C16.2311 9.84883 16.2844 9.80355 16.2844 9.48983C16.2844 9.1764 16.2307 9.13083 14.9967 8.3951C14.3804 8.02772 13.8753 7.71693 13.8742 7.70446C13.8731 7.69195 14.1898 7.50422 14.578 7.28724L15.2837 6.89273L15.5521 7.11835C16.0855 7.56671 16.702 7.77445 16.9805 7.59963C17.3422 7.37259 17.3366 6.81309 16.9709 6.64209C16.5643 6.45194 16.3775 6.34923 16.3796 6.31698C16.3809 6.29657 16.6523 6.12828 16.9827 5.94299C17.6562 5.56522 17.7523 5.48988 17.8113 5.29298C17.9297 4.89751 17.5642 4.49802 17.1675 4.58954C17.1002 4.60505 16.7741 4.77048 16.443 4.9571C16.1118 5.14376 15.8214 5.29647 15.7976 5.29647C15.7669 5.29647 15.7617 5.23513 15.7798 5.08309C15.8524 4.47357 15.8512 4.43178 15.7584 4.29452C15.6548 4.14129 15.4618 4.0349 15.2874 4.03482C15.1264 4.03475 14.9034 4.16077 14.8226 4.2976C14.666 4.56278 14.6092 5.21861 14.704 5.66756C14.7321 5.80023 14.7526 5.90996 14.7497 5.91141C14.7467 5.91286 14.4244 6.09235 14.0333 6.31033C13.6422 6.52828 13.3124 6.70663 13.3003 6.70663C13.2883 6.70663 13.2785 6.04589 13.2785 5.23836C13.2785 4.22583 13.2656 3.74496 13.2369 3.68904C13.1023 3.42716 12.8361 3.29535 12.5827 3.36515C12.4906 3.39053 12.046 3.71724 11.2679 4.33144C10.6213 4.84181 10.0827 5.25936 10.0711 5.25936C10.0595 5.25936 10.05 4.78551 10.05 4.20638V3.15344L10.3118 3.06924C10.7679 2.92258 11.3416 2.51698 11.4459 2.26749C11.5661 1.97982 11.456 1.68116 11.1807 1.54787C10.974 1.44782 10.8057 1.46456 10.6107 1.60446C10.2131 1.88968 10.1128 1.95663 10.0829 1.95663C10.0648 1.95663 10.05 1.61266 10.05 1.19221C10.05 0.346302 10.0284 0.244362 9.818 0.0945145C9.67049 -0.010505 9.40056 -0.0316203 9.24166 0.0494266ZM7.92847 5.92332L8.93669 6.7172V7.62326V8.52936L8.64628 8.36946C8.48656 8.28151 8.01078 8.01751 7.58899 7.7828L6.82209 7.35604L6.82176 6.21307C6.8215 5.27161 6.83018 5.07537 6.87085 5.09979C6.89798 5.11612 7.37391 5.48673 7.92847 5.92332ZM12.1648 6.21493L12.1643 7.35604L11.4339 7.76424C11.0322 7.98875 10.5565 8.25297 10.3768 8.35142L10.05 8.5304V7.62397V6.7175L11.0955 5.89567C11.6705 5.44365 12.1464 5.07381 12.1531 5.07381C12.1598 5.07381 12.165 5.58733 12.1648 6.21493ZM7.31438 8.91274C7.85967 9.21785 8.30583 9.47755 8.30583 9.48983C8.30583 9.51855 6.33321 10.6217 6.28185 10.6217C6.23287 10.6217 4.37224 9.51918 4.37224 9.49016C4.37224 9.45673 6.24133 8.34356 6.2846 8.3512C6.30568 8.35495 6.76906 8.60763 7.31438 8.91274ZM13.6713 8.90524C14.19 9.21644 14.6144 9.47951 14.6144 9.48983C14.6144 9.50015 14.1874 9.76481 13.6655 10.0779L12.7165 10.6472L11.8175 10.1453C10.6535 9.49547 10.6814 9.51157 10.6811 9.48924C10.6809 9.47198 12.6845 8.33944 12.7153 8.33944C12.7224 8.33944 13.1527 8.59405 13.6713 8.90524ZM8.93669 11.3586V12.2625L7.92847 13.0563C7.37391 13.4929 6.89798 13.8635 6.87085 13.8799C6.83014 13.9043 6.82161 13.7082 6.82228 12.7666L6.82309 11.6236L7.87062 11.0398C8.44674 10.7187 8.92233 10.4557 8.92742 10.4553C8.9325 10.455 8.93669 10.8614 8.93669 11.3586ZM11.4335 11.2154L12.1637 11.6236L12.1645 12.7666C12.1651 13.71 12.1566 13.9044 12.1157 13.8799C12.0884 13.8635 11.6125 13.4926 11.0581 13.0554L10.05 12.2607V11.355V10.4493L10.3766 10.6282C10.5563 10.7267 11.0319 10.9909 11.4335 11.2154Z"/>
		</symbol>
	</defs>
</svg>