<svg width="22" height="22" viewBox="0 0 22 22" fill="none" xmlns="http://www.w3.org/2000/svg">
<g clip-path="url(#clip0_218_860)">
<path d="M18.2767 7.33333H19.2501C20.2626 7.33333 21.0834 8.15415 21.0834 9.16667V12.8333C21.0834 13.8459 20.2626 14.6667 19.2501 14.6667H18.2767C17.8256 18.2841 14.7397 21.0833 11.0001 21.0833V19.25C14.0376 19.25 16.5001 16.7876 16.5001 13.75V8.25C16.5001 5.21243 14.0376 2.75 11.0001 2.75C7.96251 2.75 5.50008 5.21243 5.50008 8.25V14.6667H2.75008C1.73756 14.6667 0.916748 13.8459 0.916748 12.8333V9.16667C0.916748 8.15415 1.73756 7.33333 2.75008 7.33333H3.72348C4.17457 3.71588 7.26043 0.916667 11.0001 0.916667C14.7397 0.916667 17.8256 3.71588 18.2767 7.33333ZM2.75008 9.16667V12.8333H3.66675V9.16667H2.75008ZM18.3334 9.16667V12.8333H19.2501V9.16667H18.3334ZM7.1129 14.4695L8.0847 12.9146C8.92989 13.444 9.92923 13.75 11.0001 13.75C12.0709 13.75 13.0703 13.444 13.9154 12.9146L14.8873 14.4695C13.7603 15.1753 12.4279 15.5833 11.0001 15.5833C9.57228 15.5833 8.23983 15.1753 7.1129 14.4695Z" fill="#1774C9"/>
</g>
<defs>
<clipPath id="clip0_218_860">
<rect width="22" height="22" fill="white"/>
</clipPath>
</defs>
</svg>
