<svg xmlns="http://www.w3.org/2000/svg" width="40" height="40" fill="none" viewBox="0 0 40 40"><path fill="#262F40" fill-rule="evenodd" d="M19.118 5h-1.765v5.294h-3.53v.019l-3.51 3.51h-.019v1.765h19.412v-1.764h-.507L26.176 10.8v-.507h-3.529V5zm0 1.78v3.514h1.764V6.78zm7.565 7.043H12.829l1.765-1.764h10.324zM35 24.413v-1.765h-8.823v-1.765h-1.765v1.765h-8.824v-1.765h-1.764v1.765H5V35h30V24.412M6.765 33.235v-8.823h12.353v8.823zm14.117 0h12.353v-8.823H20.882zm7.06-3.53h-1.765v-1.764h1.764zm-15.883 0h1.765v-1.764h-1.765z" clip-rule="evenodd"/></svg>