<svg width="92" height="60" viewBox="0 0 92 60" fill="none" xmlns="http://www.w3.org/2000/svg">
<path d="M38.0616 4.66518C34.4342 4.66518 32.9359 5.62858 31.2274 7.60817C29.5254 5.62858 27.9876 4.66518 24.3996 4.66518C18.2948 4.66518 16.2839 8.74974 16.2839 13.4678V21.6105C16.3068 22.6235 16.3836 23.6345 16.5139 24.6393C16.9037 27.5415 17.6111 30.3918 18.6234 33.1383C18.9059 33.9169 19.1819 34.6098 19.4382 35.2169C19.6945 35.8239 19.9114 36.3122 20.0954 36.7082C20.2984 37.1415 20.6443 37.4912 21.0745 37.698C21.1619 37.7409 21.2519 37.7784 21.3439 37.8101C21.6289 37.8986 21.9291 37.9266 22.2255 37.8926C22.5218 37.8585 22.8079 37.763 23.0656 37.6122C23.5114 37.3595 23.8478 36.9494 24.0093 36.4616C24.1708 35.9738 24.146 35.4432 23.9397 34.9727C23.7491 34.5702 23.5125 34.0423 23.2825 33.422C21.8702 30.1071 20.9662 26.5963 20.6014 23.0094C20.5422 22.2769 20.5094 21.5445 20.5225 20.8054V13.3886C20.5225 11.112 21.0811 8.9081 24.9319 8.9081C29.4202 8.9081 29.1705 12.148 29.1705 13.3754V21.4059C29.1617 21.9033 29.3244 22.3885 29.631 22.7793C29.9375 23.1701 30.3692 23.4425 30.8528 23.5505C31.1572 23.6121 31.4715 23.605 31.7729 23.5297C32.0742 23.4544 32.3552 23.3128 32.5954 23.1152C32.8356 22.9175 33.0291 22.6688 33.1619 22.3869C33.2946 22.105 33.3634 21.7969 33.3631 21.4851V12.7551C33.3631 11.5014 33.0739 8.83552 38.1011 8.83552C41.6628 8.83552 42.0439 11.1055 42.0439 12.7287V20.106V20.7659C42.0439 21.5049 42.0439 22.2374 41.9651 22.9698C41.5978 26.5584 40.694 30.071 39.2839 33.389C39.0539 33.9367 38.8436 34.4184 38.6662 34.8012C38.5043 35.1164 38.4198 35.4659 38.4198 35.8207C38.4198 36.1754 38.5043 36.5249 38.6662 36.8401C38.8485 37.1654 39.114 37.4359 39.4351 37.6238C39.7562 37.8117 40.1214 37.9102 40.4931 37.9091C40.7165 37.9116 40.9387 37.8759 41.1502 37.8035C41.2406 37.773 41.3284 37.7355 41.4131 37.6914C41.8485 37.4875 42.1994 37.1374 42.4054 36.7016C42.5894 36.3057 42.8194 35.7976 43.0625 35.2103C43.3056 34.623 43.5948 33.8905 43.8774 33.1317C44.8903 30.3858 45.5956 27.5353 45.9802 24.6327C46.1096 23.6277 46.1885 22.6168 46.2168 21.6039V13.4678C46.1708 8.22844 43.4305 4.66518 38.0616 4.66518Z" fill="#D81E00"/>
<path d="M56.9873 26.995C53.9555 24.3008 50.5261 22.0949 46.8213 20.4557V21.6105C46.7966 22.6499 46.7177 23.6873 46.5847 24.7184L46.5453 24.9428C49.6057 26.4345 52.4203 28.3884 54.891 30.7364V30.7034C56.2053 31.9044 56.4945 33.1383 55.8373 34.3789C55.4899 35.0564 55.076 35.6974 54.6019 36.2925C54.2667 36.7346 53.833 37.3087 53.2876 38.0939C52.8898 38.7435 52.2712 39.2264 51.5462 39.4532C51.1613 39.4938 50.7746 39.3956 50.4553 39.1761L50.3173 39.0771L45.0602 35.2037C44.9851 35.1489 44.8993 35.1108 44.8085 35.0917C44.7177 35.0726 44.6239 35.073 44.5332 35.093C44.4426 35.1129 44.3572 35.1519 44.2827 35.2074C44.2081 35.2629 44.1461 35.3336 44.1007 35.4148L42.701 37.9223C42.6235 38.0624 42.5994 38.2261 42.6333 38.3828C42.6671 38.5394 42.7566 38.6783 42.885 38.7736L48.1422 42.6799C48.5233 43.0099 49.2659 44.0657 47.5442 46.2696C46.6508 47.4277 45.6873 48.5295 44.6593 49.5689L44.1665 50.0704C43.7985 50.4531 42.9376 51.3902 39.7242 49.1466C39.067 48.7309 37.043 47.431 34.467 45.4778C36.8259 43.4271 38.9327 41.1011 40.7427 38.5492C40.6443 38.556 40.5455 38.556 40.447 38.5492C39.9865 38.5465 39.5342 38.4261 39.1327 38.1995C38.6761 37.951 38.2984 37.5785 38.0427 37.1246C37.787 36.6706 37.6638 36.1536 37.687 35.6326C35.9058 38.2178 33.7886 40.5523 31.3916 42.5744L31.2273 42.6997L31.0696 42.5744C28.6756 40.5512 26.5607 38.2167 24.7807 35.6326C24.8137 36.1479 24.6996 36.6619 24.4516 37.1143C24.2036 37.5667 23.8322 37.9386 23.381 38.1863C22.8758 38.4717 22.2953 38.5938 21.7185 38.536C23.539 41.0836 25.6545 43.405 28.0205 45.4514C25.4642 47.431 23.4205 48.7045 22.7633 49.1202C19.5499 51.3308 18.6825 50.4399 18.3145 50.044L17.8282 49.5425C16.7983 48.5049 15.8348 47.4029 14.9433 46.2432C13.215 44.0393 13.9576 42.9835 14.3387 42.6536L19.6813 38.6944C19.812 38.5977 19.9024 38.4559 19.9351 38.2963C19.9679 38.1367 19.9407 37.9706 19.8587 37.8299L18.3999 35.3621C18.3533 35.2828 18.2908 35.2142 18.2162 35.1607C18.1417 35.1072 18.0568 35.0699 17.9671 35.0513C17.8774 35.0326 17.7848 35.033 17.6952 35.0525C17.6056 35.0719 17.5211 35.1099 17.447 35.1641L12.1899 39.0507L12.0519 39.1497C11.7319 39.3676 11.3458 39.4657 10.961 39.4268C10.2284 39.2048 9.60201 38.7213 9.19989 38.0675C8.6216 37.2823 8.19446 36.7082 7.8856 36.2661C7.38908 35.6825 6.949 35.0528 6.57132 34.3855C5.91417 33.1449 6.24275 31.911 7.52418 30.71V30.743C9.99716 28.3977 12.8113 26.4441 15.8699 24.9494C15.8699 24.8702 15.8699 24.7976 15.837 24.725C15.7319 23.8606 15.6596 23.0556 15.6202 22.2704V21.947V20.4557C11.9172 22.089 8.48976 24.2906 5.46075 26.9818C0.519032 30.8354 2.20789 35.0717 2.83218 36.2793C3.29001 37.1423 3.83149 37.9579 4.44875 38.7142C4.77732 39.1497 5.20446 39.7172 5.76303 40.4892C6.69389 41.8752 8.07268 42.8961 9.66646 43.3794C9.52846 45.1346 10.1725 46.9493 11.5985 48.7639C12.581 50.0464 13.6433 51.2652 14.779 52.4129C14.9302 52.5713 15.0813 52.7231 15.2325 52.888C15.7578 53.463 16.3967 53.9219 17.1083 54.2355C17.8199 54.549 18.5888 54.7104 19.3659 54.7093C20.8182 54.7093 22.5859 54.1814 24.715 52.8023C26.9567 51.4031 29.1198 49.881 31.1945 48.2426C33.2829 49.8767 35.4592 51.3945 37.7133 52.7891C39.8359 54.1682 41.6102 54.6961 43.0559 54.6961C43.8331 54.698 44.6022 54.537 45.314 54.2234C46.0257 53.9098 46.6644 53.4505 47.1893 52.8748L47.6493 52.3997C48.7851 51.252 49.8474 50.0332 50.8299 48.7507C52.2559 46.9361 52.8999 45.1214 52.7619 43.3662C54.3532 42.8816 55.7295 41.8608 56.6587 40.476L57.973 38.701C58.5907 37.9516 59.1364 37.1451 59.6027 36.2925C60.2402 35.0849 61.9225 30.8486 56.9873 26.995Z" fill="#0E6D9A"/>
<path d="M89.9432 27.9122H58.2952" stroke="#706F6F" stroke-width="0.692857" stroke-miterlimit="10"/>
<path d="M56.0806 6.9946H61.3377V5.01501H56.0806C54.9365 5.01259 53.8215 5.37678 52.8977 6.0546C51.974 6.73243 51.2897 7.68852 50.9445 8.7838C50.5992 9.87907 50.611 11.0564 50.978 12.1445C51.3451 13.2326 52.0483 14.1747 52.9854 14.8338C52.0512 15.4938 51.3507 16.4356 50.9854 17.5224C50.6202 18.6092 50.6092 19.7847 50.9541 20.8782C51.2991 21.9717 51.982 22.9264 52.9037 23.6039C53.8255 24.2814 54.9383 24.6464 56.0806 24.646H61.3377V22.6664H56.0806C55.6206 22.6867 55.1612 22.6132 54.7302 22.4504C54.2992 22.2876 53.9055 22.0389 53.5728 21.7192C53.2401 21.3995 52.9754 21.0154 52.7945 20.5902C52.6136 20.165 52.5204 19.7074 52.5204 19.245C52.5204 18.7826 52.6136 18.325 52.7945 17.8998C52.9754 17.4745 53.2401 17.0905 53.5728 16.7708C53.9055 16.4511 54.2992 16.2023 54.7302 16.0395C55.1612 15.8768 55.6206 15.8033 56.0806 15.8236H61.3377V13.8572H56.0806C55.1761 13.8572 54.3086 13.4964 53.669 12.8541C53.0293 12.2119 52.67 11.3408 52.67 10.4325C52.67 9.52421 53.0293 8.65312 53.669 8.01087C54.3086 7.36861 55.1761 7.0078 56.0806 7.0078V6.9946Z" fill="#706F6F"/>
<path d="M74.3755 7.91841H70.6232C69.9443 7.90592 69.2655 7.94563 68.5926 8.03718C68.085 8.12615 67.6221 8.38416 67.2784 8.76963C66.8913 9.16773 66.6326 9.67356 66.5358 10.2213C66.4313 10.8315 66.3808 11.4498 66.3846 12.069V24.646H63.8284V12.0162C63.7816 10.8675 63.9146 9.71853 64.2226 8.61127C64.4604 7.89375 64.8792 7.25036 65.4384 6.74385C66.1457 6.13649 67.0175 5.75507 67.9421 5.64848C68.813 5.52909 69.6918 5.47835 70.5706 5.49671H74.3492L74.3755 7.91841Z" fill="#706F6F"/>
<path d="M89.1346 24.6459H86.5718V15.9555H79.6586V13.5536H86.5718V12.3329C86.616 11.1209 86.2293 9.93263 85.4809 8.98076C85.1392 8.55296 84.703 8.21096 84.2068 7.98189C83.7107 7.75281 83.1681 7.64296 82.6223 7.66103C82.1128 7.64852 81.6065 7.74435 81.1365 7.94223C80.6665 8.14011 80.2434 8.43556 79.8952 8.8092C79.0371 9.78418 78.5977 11.0603 78.6729 12.3593V24.6459H76.1166V12.2801C76.0734 10.4918 76.6941 8.75128 77.858 7.39709C78.4374 6.69791 79.1671 6.13986 79.9924 5.76495C80.8177 5.39005 81.7169 5.20807 82.6223 5.23273C83.5272 5.20767 84.4261 5.38674 85.2529 5.75674C86.0797 6.12675 86.8133 6.67827 87.3998 7.37069C88.5688 8.73233 89.1897 10.483 89.1412 12.2801L89.1346 24.6459Z" fill="#706F6F"/>
<path d="M67.9092 35.8307H67.1272L66.5752 31.271L65.3726 35.2302C65.3346 35.3936 65.2702 35.5496 65.182 35.6921C65.1403 35.7542 65.0832 35.8045 65.0165 35.838C64.9497 35.8715 64.8755 35.8872 64.8009 35.8834C64.7271 35.888 64.6535 35.8727 64.5876 35.839C64.5218 35.8054 64.4661 35.7546 64.4263 35.6921C64.3337 35.5503 64.2649 35.3943 64.2226 35.2302L63.02 31.271L62.468 35.8307H61.686L62.3037 30.9279C62.3146 30.75 62.364 30.5766 62.4483 30.4198C62.4994 30.3345 62.5709 30.2633 62.6562 30.2126C62.7415 30.1619 62.838 30.1333 62.9371 30.1294C63.0362 30.1255 63.1347 30.1463 63.2237 30.1901C63.3127 30.2339 63.3895 30.2992 63.4472 30.3802C63.5468 30.5443 63.622 30.7222 63.6706 30.9081L64.8009 34.6297L65.9246 30.9081C65.9738 30.6678 66.0772 30.4421 66.2269 30.2482C66.3359 30.1474 66.4796 30.0929 66.6277 30.0964C66.7322 30.0895 66.8364 30.1124 66.9283 30.1627C67.0202 30.2129 67.096 30.2883 67.1469 30.3802C67.2296 30.54 67.2788 30.7152 67.2915 30.8949L67.9092 35.8307Z" fill="#706F6F"/>
<path d="M76.3732 33.95C76.3831 34.2136 76.3373 34.4763 76.2387 34.7209C76.1402 34.9654 75.9912 35.1862 75.8015 35.3687C75.4764 35.6483 75.0784 35.8286 74.6545 35.8883C74.2306 35.9479 73.7986 35.8844 73.4095 35.7052C73.0664 35.5441 72.7916 35.2658 72.634 34.92C72.5141 34.6136 72.4582 34.2856 72.4698 33.9566V30.2086H75.7555V30.9212H73.2386V33.9038C73.2259 34.1272 73.2549 34.351 73.324 34.5637C73.4227 34.8028 73.605 34.9976 73.8366 35.1114C74.0084 35.1874 74.1943 35.2257 74.382 35.2235C74.5511 35.2235 74.7193 35.1991 74.8815 35.1509C75.0302 35.1009 75.1668 35.02 75.2823 34.9134C75.3973 34.8176 75.4874 34.6954 75.5452 34.5571C75.6127 34.4035 75.6442 34.2365 75.6372 34.0688C75.6431 33.9229 75.618 33.7775 75.5636 33.6421C75.5092 33.5067 75.4268 33.3845 75.3218 33.2835C75.0945 33.0756 74.7944 32.9664 74.4872 32.98C74.1562 32.982 73.8293 33.054 73.5278 33.1912V32.4587C73.8582 32.3262 74.2103 32.2569 74.566 32.2541C75.0482 32.2325 75.5197 32.4006 75.8803 32.7226C76.0461 32.8792 76.1761 33.07 76.2612 33.2819C76.3463 33.4938 76.3845 33.7218 76.3732 33.95Z" fill="#706F6F"/>
<path d="M85.0539 35.8306H84.3047V30.9212H83.9301C83.6742 30.9176 83.4186 30.9419 83.1679 30.9938C82.8482 31.0729 82.5625 31.2534 82.353 31.5085C82.2021 31.7016 82.0985 31.9276 82.0507 32.1684C81.9985 32.4312 81.9743 32.6988 81.9784 32.9668V35.8306H80.6116V35.1245H81.2227V32.9932C81.2141 32.6491 81.2494 32.3054 81.3279 31.9704C81.4264 31.5909 81.62 31.2431 81.8904 30.9601C82.1607 30.6771 82.4987 30.4684 82.8721 30.3537C83.2134 30.2663 83.5649 30.2263 83.917 30.2349H85.0539V35.8306Z" fill="#706F6F"/>
<path d="M89.943 33.9038C89.9472 34.3084 89.833 34.7054 89.6144 35.0454C89.4054 35.3805 89.0908 35.636 88.7207 35.7712C88.5911 35.8216 88.4568 35.8592 88.3199 35.8834C88.1755 35.8936 88.0306 35.8936 87.8862 35.8834C87.7549 35.8917 87.6232 35.8917 87.4919 35.8834C87.3781 35.8667 87.266 35.8402 87.1567 35.8042C86.9307 35.7317 86.7236 35.6094 86.5508 35.4461C86.378 35.2828 86.2437 35.0828 86.1579 34.8606C86.0328 34.5415 85.9724 34.2005 85.9804 33.8576V30.2086H86.7427V33.851C86.7368 34.0751 86.7702 34.2984 86.8413 34.5109C86.8973 34.6551 86.9857 34.7844 87.0997 34.8885C87.2137 34.9927 87.3502 35.069 87.4984 35.1114C87.6431 35.1563 87.7939 35.1786 87.9453 35.1773C88.1718 35.1877 88.3974 35.1424 88.6024 35.0454C88.7782 34.9679 88.9285 34.842 89.0362 34.6824C89.1857 34.461 89.2617 34.1977 89.253 33.9302C89.2602 33.7637 89.2343 33.5974 89.1768 33.441C89.1192 33.2846 89.0312 33.1414 88.9179 33.0196C88.8036 32.9005 88.6654 32.8072 88.5124 32.7457C88.3595 32.6843 88.1953 32.6562 88.0307 32.6633C87.8746 32.6632 87.7194 32.6877 87.5707 32.7358C87.4032 32.7901 87.2405 32.8585 87.0844 32.9404V32.1948L87.459 32.0628C87.6535 32.0075 87.8549 31.9808 88.057 31.9836C88.3157 31.9648 88.5754 32.0011 88.8191 32.0901C89.0628 32.1791 89.285 32.3189 89.4712 32.5002C89.6573 32.6815 89.8032 32.9003 89.8992 33.1422C89.9953 33.3841 90.0393 33.6436 90.0284 33.9038H89.943Z" fill="#706F6F"/>
<path d="M68.5663 31.7791C68.5683 32.0186 68.6222 32.2549 68.7244 32.4714C68.8265 32.6879 68.9744 32.8795 69.1577 33.0328C68.9023 33.2443 68.7181 33.5298 68.6301 33.8503C68.5421 34.1707 68.5546 34.5107 68.666 34.8237C68.7773 35.1368 68.9821 35.4078 69.2523 35.5998C69.5226 35.7918 69.8452 35.8954 70.1763 35.8966H71.76V35.1642H70.1763C69.9427 35.1642 69.7188 35.071 69.5536 34.9052C69.3885 34.7394 69.2957 34.5145 69.2957 34.28C69.2957 34.0455 69.3885 33.8206 69.5536 33.6547C69.7188 33.4889 69.9427 33.3957 70.1763 33.3957H71.76V32.6633H70.1763C69.9427 32.6633 69.7188 32.5701 69.5536 32.4043C69.3885 32.2385 69.2957 32.0136 69.2957 31.7791C69.2957 31.5446 69.3885 31.3197 69.5536 31.1538C69.7188 30.988 69.9427 30.8949 70.1763 30.8949H71.76V30.1624H70.1763C69.7493 30.1624 69.3398 30.3327 69.0378 30.6359C68.7359 30.9391 68.5663 31.3503 68.5663 31.7791Z" fill="#706F6F"/>
<path d="M78.4693 30.8949H80.0465V30.1624H78.4693C78.1367 30.162 77.8121 30.265 77.5402 30.4573C77.2682 30.6496 77.0623 30.9218 76.9506 31.2364C76.839 31.5511 76.8271 31.8927 76.9167 32.2144C77.0062 32.536 77.1928 32.822 77.4508 33.0328C77.1915 33.2425 77.0038 33.528 76.9134 33.8497C76.8231 34.1714 76.8347 34.5134 76.9467 34.8281C77.0586 35.1429 77.2654 35.4149 77.5382 35.6064C77.811 35.7978 78.1365 35.8993 78.4693 35.8966H80.0465V35.1642H78.4693C78.2358 35.1642 78.0118 35.071 77.8467 34.9052C77.6815 34.7394 77.5888 34.5145 77.5888 34.28C77.5888 34.0455 77.6815 33.8206 77.8467 33.6547C78.0118 33.4889 78.2358 33.3957 78.4693 33.3957H80.0465V32.6633H78.4693C78.2358 32.6633 78.0118 32.5701 77.8467 32.4043C77.6815 32.2385 77.5888 32.0136 77.5888 31.7791C77.5888 31.5446 77.6815 31.3197 77.8467 31.1538C78.0118 30.988 78.2358 30.8949 78.4693 30.8949Z" fill="#706F6F"/>
</svg>
