<svg xmlns="http://www.w3.org/2000/svg" width="34" height="34" fill="none" viewBox="0 0 34 34"><path fill="#0FBC2E" fill-rule="evenodd" d="M23.858 5.313H2.656A2.657 2.657 0 0 0 0 7.969v16.469a2.657 2.657 0 0 0 2.656 2.656H23.38q-.009.256-.01.531c0 3.125.876 4.035 2.21 6.133a.53.53 0 1 0 .898-.57c-1.212-1.906-2.046-2.72-2.046-5.563 0-2.589.739-3.93 1.323-5.12.446-.903.802-1.732.802-2.849 0-1.233-.01-3.14-.005-4.777l.005-1.063a1.6 1.6 0 0 1 1.594-1.597c.887 0 1.594.705 1.594 1.594v9.562a.532.532 0 0 0 1.062 0v-9.562a2.64 2.64 0 0 0-2.65-2.657V7.97A2.657 2.657 0 0 0 25.5 5.312h-.452L23.853 2.97c-.18-.463-.25-1.222.213-1.636.196-.175.494-.27.897-.27.335 0 .686.181 1.063.48.462.365.935.903 1.429 1.586 1.557 2.157 3.225 5.714 4.797 9.995.43 1.172.68 2.41.68 3.66.01 4.742 0 16.684 0 16.684a.532.532 0 0 0 1.063.001s.01-11.944 0-16.687c0-1.373-.271-2.736-.744-4.025C31.36 7.617 29.314 3.5 27.503 1.49 26.61.497 25.728 0 24.963 0c-.733 0-1.248.222-1.604.538-.818.728-.807 2.055-.478 2.85l.016.038c.053.112.579 1.142.961 1.886M8.5 23.375c.282 0 .552-.112.749-.311.202-.2.313-.47.313-.751v-1.594c0-.282-.111-.552-.313-.751a1.05 1.05 0 0 0-.749-.312H5.313c-.282 0-.553.112-.75.312-.201.199-.313.47-.313.75v1.595c0 .281.112.552.313.75.197.2.468.312.75.312zm18.594-12v-.75H1.063v4.25h24.426c.006-.184.006-.894.006-1.066a2.67 2.67 0 0 1 1.599-2.433" clip-rule="evenodd"/></svg>