<svg xmlns="http://www.w3.org/2000/svg" width="34" height="34" fill="none" viewBox="0 0 34 34"><path fill="#0FBC2E" d="M17 9.775c-3.984 0-7.225 3.242-7.225 7.225 0 3.984 3.241 7.225 7.225 7.225s7.225-3.24 7.225-7.225c0-3.983-3.241-7.225-7.225-7.225m1.391 8.411h-2.818v1.143h3.228a.567.567 0 0 1 0 1.134h-3.228v1.352a.567.567 0 1 1-1.133 0v-1.352h-.698a.567.567 0 0 1 0-1.134h.698v-1.143h-.698a.567.567 0 0 1 0-1.133h.698v-4.301c0-.313.254-.567.566-.567h3.385c1.655 0 3 1.346 3 3a3.003 3.003 0 0 1-3 3.001"/><path fill="#0FBC2E" d="M18.391 13.318h-2.818v3.734h2.818a1.87 1.87 0 0 0 1.867-1.867 1.87 1.87 0 0 0-1.867-1.867"/><path fill="#0FBC2E" d="M31.415 5.008C19.863 6.657 15.793 2.958 1.955 4.9A2.28 2.28 0 0 0 0 7.146v19.67a2.268 2.268 0 0 0 2.566 2.247c13.45-1.795 17.559 1.924 29.51.095A2.254 2.254 0 0 0 34 26.918V7.251a2.267 2.267 0 0 0-2.585-2.244m-4.498 6.113h2.833a.567.567 0 0 1 0 1.134h-2.833a.567.567 0 0 1 0-1.134m3.4 3.755a.567.567 0 0 1-.567.566h-2.125a.567.567 0 0 1 0-1.133h2.125c.313 0 .567.254.567.567M7.083 22.88H4.25a.567.567 0 0 1 0-1.134h2.833a.567.567 0 0 1 0 1.134m-3.4-3.754c0-.313.254-.567.567-.567h2.125a.567.567 0 0 1 0 1.133H4.25a.567.567 0 0 1-.567-.566m.992-6.13v1.955a.567.567 0 0 1-1.133 0v-2.484c0-.313.253-.566.566-.566A3.19 3.19 0 0 0 7.29 8.505a.567.567 0 0 1 .544-.603c1.087-.043 2.14-.05 3.22-.024a.567.567 0 0 1-.014 1.134c-.102 0-1.14-.038-2.62.004a4.33 4.33 0 0 1-3.744 3.98M17 25.36c-4.609 0-8.358-3.75-8.358-8.358 0-4.61 3.75-8.359 8.358-8.359s8.358 3.75 8.358 8.359c0 4.608-3.75 8.358-8.358 8.358m13.458-3.754a.567.567 0 0 1-.566.566 3.19 3.19 0 0 0-3.188 3.188c0 .173.046.386-.146.593a.57.57 0 0 1-.405.18 43 43 0 0 1-3.193-.068.567.567 0 0 1 .064-1.131c.883.05 1.724.074 2.561.072a4.33 4.33 0 0 1 3.74-3.93v-1.97a.567.567 0 0 1 1.133 0z"/></svg>