<svg width="74" height="23" viewBox="0 0 74 23" fill="none" xmlns="http://www.w3.org/2000/svg">
<path d="M65.5403 1H51.5854C52.3984 5.60645 56.8693 9.94194 61.7467 9.94194H72.8564C72.9919 9.53549 72.9919 8.85806 72.9919 8.45161C72.9919 4.3871 69.6048 1 65.5403 1Z" fill="url(#paint0_linear_99_16037)"/>
<path d="M52.8049 10.7549V22H59.5791V16.0387H65.5404C68.792 16.0387 71.6372 13.7355 72.5856 10.7549H52.8049Z" fill="#4FAD50"/>
<path d="M28.9597 1V21.8645H34.921C34.921 21.8645 36.4113 21.8645 37.2242 20.3742C41.2888 12.3806 42.5081 9.94194 42.5081 9.94194H43.321V21.8645H50.0952V1H44.1339C44.1339 1 42.6436 1.13549 41.8307 2.49033C38.4436 9.40001 36.5468 12.9226 36.5468 12.9226H35.7339V1H28.9597Z" fill="#4FAD50"/>
<path d="M0.508057 22.0002V1.13574H7.28225C7.28225 1.13574 9.17904 1.13574 10.2629 4.11638C12.9726 11.9744 13.2436 13.0583 13.2436 13.0583C13.2436 13.0583 13.7855 11.1615 16.2242 4.11638C17.3081 1.13574 19.2049 1.13574 19.2049 1.13574H25.979V22.0002H19.2049V10.7551H18.3919L14.5984 22.0002H11.6178L7.82422 10.7551H7.01131V22.0002H0.508057Z" fill="#4FAD50"/>
<defs>
<linearGradient id="paint0_linear_99_16037" x1="51.5613" y1="5.53506" x2="72.9439" y2="5.53506" gradientUnits="userSpaceOnUse">
<stop stop-color="#27B1E6"/>
<stop offset="1" stop-color="#148ACA"/>
</linearGradient>
</defs>
</svg>
