<svg xmlns="http://www.w3.org/2000/svg" width="92" height="60" fill="none" viewBox="0 0 92 60"><path fill="#D81E00" d="M38.062 4.665c-3.628 0-5.126.964-6.835 2.943-1.702-1.98-3.24-2.943-6.827-2.943-6.105 0-8.116 4.085-8.116 8.803v8.142q.035 1.521.23 3.03a40 40 0 0 0 2.11 8.498 46 46 0 0 0 1.472 3.57c.202.434.548.783.979.99q.13.064.269.112a2.15 2.15 0 0 0 1.722-.198 2.08 2.08 0 0 0 .874-2.64 19 19 0 0 1-.658-1.55 35.8 35.8 0 0 1-2.68-10.413 22 22 0 0 1-.08-2.204V13.39c0-2.277.56-4.48 4.41-4.48 4.488 0 4.239 3.239 4.239 4.466v8.03a2.154 2.154 0 0 0 1.682 2.145 2.09 2.09 0 0 0 1.742-.435 2.1 2.1 0 0 0 .768-1.63v-8.73c0-1.254-.29-3.92 4.738-3.92 3.562 0 3.943 2.27 3.943 3.894v8.037c0 .739 0 1.471-.079 2.204a36 36 0 0 1-2.681 10.419c-.23.548-.44 1.03-.618 1.412a2.23 2.23 0 0 0 0 2.04 2.094 2.094 0 0 0 2.484.962q.135-.045.263-.112c.436-.204.786-.554.992-.99.184-.395.414-.903.657-1.49.244-.588.533-1.32.815-2.08a39.6 39.6 0 0 0 2.103-8.498q.195-1.508.237-3.03v-8.135c-.046-5.24-2.786-8.803-8.155-8.803"/><path fill="#0E6D9A" d="M56.987 26.995a39.2 39.2 0 0 0-10.166-6.54v1.156a30 30 0 0 1-.236 3.107l-.04.225a33.3 33.3 0 0 1 8.346 5.793v-.033c1.314 1.201 1.604 2.435.946 3.676a11.5 11.5 0 0 1-1.235 1.913 50 50 0 0 0-1.314 1.802 3.14 3.14 0 0 1-1.742 1.36 1.63 1.63 0 0 1-1.09-.278l-.139-.099-5.257-3.873a.656.656 0 0 0-.96.21l-1.399 2.508a.66.66 0 0 0 .184.852l5.257 3.906c.381.33 1.124 1.386-.598 3.59a36 36 0 0 1-2.885 3.299l-.492.501c-.369.383-1.23 1.32-4.443-.923a77 77 0 0 1-5.257-3.67 39.3 39.3 0 0 0 6.276-6.928 2 2 0 0 1-.296 0 2.7 2.7 0 0 1-1.314-.35 2.77 2.77 0 0 1-1.446-2.566 35.2 35.2 0 0 1-6.295 6.941l-.165.126-.157-.126a35.3 35.3 0 0 1-6.29-6.941 2.72 2.72 0 0 1-1.399 2.553 2.8 2.8 0 0 1-1.663.35 39.5 39.5 0 0 0 6.302 6.915c-2.556 1.98-4.6 3.254-5.257 3.67-3.213 2.21-4.08 1.319-4.449.923l-.486-.502a35 35 0 0 1-2.885-3.299c-1.728-2.204-.985-3.26-.604-3.59l5.342-3.959a.66.66 0 0 0 .178-.864l-1.46-2.468a.66.66 0 0 0-.952-.198l-5.257 3.887-.138.099c-.32.218-.706.316-1.091.277a3.14 3.14 0 0 1-1.761-1.36c-.578-.785-1.006-1.359-1.314-1.8a12 12 0 0 1-1.315-1.882c-.657-1.24-.328-2.474.953-3.675v.033a33.5 33.5 0 0 1 8.346-5.794c0-.079 0-.151-.033-.224a35 35 0 0 1-.217-2.455v-1.814a39 39 0 0 0-10.16 6.526c-4.941 3.853-3.252 8.09-2.628 9.297.458.863 1 1.679 1.617 2.435.328.436.755 1.003 1.314 1.775a7.23 7.23 0 0 0 3.903 2.89c-.138 1.756.506 3.57 1.932 5.385a38 38 0 0 0 3.181 3.649c.151.158.302.31.454.475a5.6 5.6 0 0 0 4.133 1.821c1.452 0 3.22-.528 5.349-1.907a72 72 0 0 0 6.48-4.56 72 72 0 0 0 6.518 4.547c2.123 1.38 3.897 1.907 5.343 1.907a5.57 5.57 0 0 0 4.133-1.821l.46-.475a38 38 0 0 0 3.18-3.65c1.427-1.814 2.07-3.629 1.933-5.384a7.23 7.23 0 0 0 3.897-2.89l1.314-1.775a15.4 15.4 0 0 0 1.63-2.409c.637-1.207 2.32-5.443-2.616-9.297"/><path stroke="#706F6F" stroke-miterlimit="10" stroke-width="0.692857" d="M89.943 27.912H58.295"/><path fill="#706F6F" d="M56.08 6.995h5.258v-1.98H56.08a5.36 5.36 0 0 0-3.183 1.04 5.4 5.4 0 0 0-1.954 2.729 5.42 5.42 0 0 0 .034 3.36 5.4 5.4 0 0 0 2.007 2.69 5.4 5.4 0 0 0-2 2.688 5.42 5.42 0 0 0-.03 3.356 5.4 5.4 0 0 0 1.949 2.726 5.36 5.36 0 0 0 3.177 1.042h5.257v-1.98H56.08a3.4 3.4 0 0 1-2.508-.947 3.43 3.43 0 0 1-1.053-2.474 3.44 3.44 0 0 1 1.053-2.474 3.4 3.4 0 0 1 2.508-.947h5.257v-1.967H56.08c-.905 0-1.772-.36-2.412-1.003a3.43 3.43 0 0 1 0-4.843 3.4 3.4 0 0 1 2.412-1.003zm18.296.923h-3.753a13 13 0 0 0-2.03.12 2.3 2.3 0 0 0-1.315.732 2.8 2.8 0 0 0-.742 1.451c-.105.61-.155 1.229-.151 1.848v12.577h-2.557v-12.63a11 11 0 0 1 .395-3.405 4.4 4.4 0 0 1 1.215-1.867 4.66 4.66 0 0 1 2.504-1.096q1.308-.179 2.629-.151h3.778zm14.759 16.728h-2.563v-8.69h-6.913v-2.402h6.913v-1.221A5.12 5.12 0 0 0 85.48 8.98a3.52 3.52 0 0 0-2.859-1.32 3.6 3.6 0 0 0-2.727 1.148 4.94 4.94 0 0 0-1.222 3.55v12.287h-2.556V12.28a7.22 7.22 0 0 1 1.741-4.883 5.97 5.97 0 0 1 4.764-2.164A6.03 6.03 0 0 1 87.4 7.37a7.24 7.24 0 0 1 1.741 4.91zM67.91 35.83h-.783l-.552-4.559-1.202 3.96a1.5 1.5 0 0 1-.191.461.43.43 0 0 1-.381.191.41.41 0 0 1-.375-.19 1.6 1.6 0 0 1-.203-.463l-1.203-3.959-.552 4.56h-.782l.618-4.903c.01-.178.06-.351.144-.508a.6.6 0 0 1 .776-.23.6.6 0 0 1 .223.19q.15.247.224.528l1.13 3.722 1.124-3.722c.049-.24.152-.466.302-.66a.57.57 0 0 1 .4-.152.55.55 0 0 1 .52.284c.083.16.132.335.144.515zm8.463-1.88a1.87 1.87 0 0 1-.572 1.419 2.24 2.24 0 0 1-2.392.336 1.6 1.6 0 0 1-.775-.785 2.4 2.4 0 0 1-.164-.963v-3.748h3.285v.712H73.24v2.983c-.013.223.016.447.085.66.099.239.281.434.513.547.171.076.357.115.545.113q.255 0 .5-.073c.148-.05.285-.131.4-.238a.9.9 0 0 0 .263-.356 1.1 1.1 0 0 0 .092-.488 1.03 1.03 0 0 0-.315-.786 1.16 1.16 0 0 0-.835-.303 2.35 2.35 0 0 0-.96.211v-.732a2.9 2.9 0 0 1 1.039-.205 1.85 1.85 0 0 1 1.314.469 1.58 1.58 0 0 1 .493 1.227m8.68 1.88h-.75v-4.909h-.374a3.5 3.5 0 0 0-.762.073c-.32.079-.606.26-.815.515-.15.193-.254.419-.302.66a3.8 3.8 0 0 0-.073.798v2.864h-1.366v-.707h.61v-2.13a4 4 0 0 1 .106-1.024 2.3 2.3 0 0 1 1.544-1.616 3.8 3.8 0 0 1 1.045-.12h1.137zm4.889-1.926a2.07 2.07 0 0 1-.329 1.141 1.77 1.77 0 0 1-.893.726q-.195.075-.401.112-.217.015-.434 0a3 3 0 0 1-.394 0 2 2 0 0 1-.335-.079 1.59 1.59 0 0 1-1-.943 2.6 2.6 0 0 1-.177-1.003v-3.65h.763v3.643a1.9 1.9 0 0 0 .098.66 1 1 0 0 0 .657.6q.219.068.447.066c.227.01.452-.035.657-.132a1 1 0 0 0 .434-.363 1.27 1.27 0 0 0 .217-.752 1.26 1.26 0 0 0-.335-.91 1.16 1.16 0 0 0-.887-.357q-.236 0-.46.073-.252.082-.487.204v-.745l.375-.132q.293-.083.598-.08a1.83 1.83 0 0 1 1.842 1.16c.096.241.14.5.13.76zM68.566 31.78a1.65 1.65 0 0 0 .592 1.253 1.62 1.62 0 0 0-.492 1.79 1.62 1.62 0 0 0 1.51 1.074h1.584v-.733h-1.584a.88.88 0 0 1-.88-.884.887.887 0 0 1 .88-.884h1.584v-.733h-1.584a.88.88 0 0 1-.88-.884.88.88 0 0 1 .88-.884h1.584v-.733h-1.584c-.427 0-.836.17-1.138.474a1.62 1.62 0 0 0-.472 1.143m9.904-.884h1.576v-.733H78.47a1.61 1.61 0 0 0-1.518 1.074 1.62 1.62 0 0 0 .5 1.797 1.61 1.61 0 0 0-.504 1.795 1.61 1.61 0 0 0 1.522 1.069h1.578v-.733H78.47a.88.88 0 0 1-.88-.884.886.886 0 0 1 .88-.884h1.578v-.733H78.47a.88.88 0 0 1-.88-.884.886.886 0 0 1 .88-.884"/></svg>