<svg xmlns="http://www.w3.org/2000/svg"><style>symbol{display:none}symbol:target{display:block}</style><defs><symbol id="ic-burger" viewBox="0 0 26 16"><path d="M0 0h26v2H0zm0 7h26v2H0zm0 7h18v2H0z"/></symbol><symbol id="ic-floorplan" viewBox="0 0 15 15"><path d="M15 15H0V0h4.7l3.1 2.1-.6.8L4.3 1H1v13h5V8H4V7h5v1H7v6h7V8h-2V7h2V1h-4V0h5z"/></symbol><symbol id="ic-close" viewBox="0 0 20 20"><path d="M-.04 1.373 1.302.03 19.97 18.697l-1.343 1.344z"/><path d="M-.04 18.627 18.626-.041l1.343 1.344L1.303 19.97z"/></symbol><symbol id="ic-arr-right" viewBox="0 0 7 12"><path d="M0 10.5 4.4 6 0 1.4 1.3 0 7 6l-5.7 6z"/></symbol><symbol id="ic-arr" viewBox="0 0 16 16"><path d="M-.026 14.444 13.834.585l1.555 1.556L1.53 16z"/><path d="M1.4 0H16v2.2H1.4z"/><path d="M13.8 0H16v14.6h-2.2z"/></symbol><symbol id="ic-balcony" viewBox="0 0 17 11"><path fill-rule="evenodd" d="M1 0H0v11h17V0zm15 10V6H9v4zm-8 0V6H1v4zm0-5H1V1h7zm8 0H9V1h7zm-4-3h1v2h-1zm1 5h-1v2h1zM4 2h1v2H4zm1 5H4v2h1z" clip-rule="evenodd"/></symbol><symbol id="ic-library" viewBox="0 0 15 17"><path fill-rule="evenodd" d="M9 0H5v4H1v11H0v1h2v1h1v-1h9v1h1v-1h2v-1h-1V4h-4V0zM2 14h1v1h2V8H2zm0-7h3V5H2zm4-3V1h3v11H6zm3 11H6v-2h3zm4-7v6h-1v1h-2V8zm0-3h-3v2h3z" clip-rule="evenodd"/></symbol><symbol id="ic-buffets" viewBox="0 0 13 17"><path fill-rule="evenodd" d="M0 1.5A1.5 1.5 0 0 1 1.5 0h10A1.5 1.5 0 0 1 13 1.5v14a1.5 1.5 0 0 1-1.5 1.5h-10A1.5 1.5 0 0 1 0 15.5zM11 1a1 1 0 0 1 1 1v8H7V1zM6 1H2a1 1 0 0 0-1 1v8h5zM1 11h11v4a1 1 0 0 1-1 1H2a1 1 0 0 1-1-1zm7 2H5v1h3z" clip-rule="evenodd"/></symbol><symbol id="ic-bathroom" viewBox="0 0 17 19"><path fill-rule="evenodd" d="m14.91.21.02.02.004-.004L16.707 2H17v10c0 1.711-.86 3.221-2.17 4.123l1.291 1.291-.707.707L14 16.707l.231-.231A5 5 0 0 1 12 17H5c-.713 0-1.39-.149-2.004-.418l.125.125-1.414 1.414L1 17.414l1.242-1.242A5 5 0 0 1 0 12V9h16V2.707l-1.086-1.086-1.293 1.293 1.008 1.008-.707.707L11 1.707 11.707 1l1.207 1.207zM5 10h4v2H5zm4 3H4v-3H1v1.5A4.5 4.5 0 0 0 5.5 16h6a4.5 4.5 0 0 0 4.5-4.5V10h-6v3z" clip-rule="evenodd"/></symbol><symbol id="ic-showcases" viewBox="0 0 11 17"><path fill-rule="evenodd" d="M1 0H0v17h11V0zm9 1H1v4h1V3h4v2h4zM5 4H3v1h2zm0 2H1v5h4V8h4v3h1V6zm1 3h2v2H6zm-5 7v-4h4v4zm5 0v-4h4v4z" clip-rule="evenodd"/></symbol><symbol id="ic-dress-room" viewBox="0 0 17 15"><path fill-rule="evenodd" d="M6.445 1.155a2.5 2.5 0 0 0-.392 1.398l1.013-.022a1.487 1.487 0 1 1 1.518 1.455V4H8v3h-.734a1 1 0 0 0-.497.132l-6.265 3.58A1 1 0 0 0 0 11.58V13a2 2 0 0 0 2 2h13a2 2 0 0 0 2-2v-1.42a1 1 0 0 0-.504-.868l-6.265-3.58A1 1 0 0 0 9.734 7H9V4.96a2.5 2.5 0 1 0-2.555-3.805M7.44 8a1 1 0 0 0-.493.13l-5.44 3.083a1 1 0 0 0-.507.87V13a1 1 0 0 0 1 1h13a1 1 0 0 0 1-1v-.917a1 1 0 0 0-.507-.87l-5.44-3.083A1 1 0 0 0 9.56 8z" clip-rule="evenodd"/></symbol><symbol id="ic-wardrobes" viewBox="0 0 13 17"><path fill-rule="evenodd" d="M0 0h13v17H0zm1 16h5V1H1zm6 0h5V1H7zM3 7h1v3H3zm7 0H9v3h1z" clip-rule="evenodd"/></symbol><symbol id="ic-curbstones" viewBox="0 0 15 18"><path fill-rule="evenodd" d="M0 7v7h1.767L1 16.864l.966.258L2.802 14H12.2l.836 3.122.966-.258L13.234 14H15V0H0zm12.966 6H14V7H1v6zM1 6h13V1H1zm8-2V3H6v1z" clip-rule="evenodd"/></symbol><symbol id="ic-table" viewBox="0 0 18 13"><path fill-rule="evenodd" d="M17.277 2a2 2 0 0 0-2-2h-13a2 2 0 0 0-2 2v1a2 2 0 0 0 1.79 1.989L0 12.7l.966.259L3.1 5h11.375l2.133 7.959.966-.259-2.067-7.713A2 2 0 0 0 17.277 3zm-1 .5a1.5 1.5 0 0 0-1.5-1.5h-12a1.5 1.5 0 0 0 0 3h12a1.5 1.5 0 0 0 1.5-1.5" clip-rule="evenodd"/></symbol><symbol id="ic-wall" viewBox="0 0 18 17"><path fill-rule="evenodd" d="M1.3 5V1.3H8V5zm0 1.3V10H8V6.3zm0 5V16H8v-4.7zM.3 17H0V0h17.3v17zm9-15.7H16V5H9.3zm0 5H16V10H9.3zm0 5H16V16H9.3zm-5 1.7h1v1.3h-1zm9 0h-1v1.3h1z" clip-rule="evenodd"/></symbol><symbol id="ic-shelf" viewBox="0 0 13 17"><path fill-rule="evenodd" d="M1 7V4h11v3zM0 8V0h13v17H0zm1 8h5v-5H1zm6 0h5v-5H7zm5-8v2H1V8zm0-5H1V1h11z" clip-rule="evenodd"/></symbol><symbol id="ic-bedroom" viewBox="0 0 13 17"><path fill-rule="evenodd" d="M13 0H0v1h1v14h1v2h1v-2h7v2h1v-2h1V1h1zm-2 1H7v11h4zm0 12H2v1h9zm-9-1V1h4v11zm7-4V6H8v2zM5 6v2H4V6z" clip-rule="evenodd"/></symbol><symbol id="ic-poof" viewBox="0 0 18 15"><path d="M5 8.5c.96.96 2.263 1.5 3.621 1.5h.758c1.358 0 2.66-.54 3.621-1.5M11 14c2.833-.167 6.5-1.2 6.5-4 0-3.5-6-9-8.5-9-2 0-8 5.5-8 9s5 4 7 4z"/></symbol><symbol id="ic-hallway" viewBox="0 0 17 13"><path fill-rule="evenodd" d="M1 0h1v1h13V0h1v7a1 1 0 0 1 1 1v3a1 1 0 0 1-1 1v1h-2v-1H3v1H1v-1a1 1 0 0 1-1-1V8a1 1 0 0 1 1-1zm1 7h2V5a1 1 0 0 1 1-1h7a1 1 0 0 1 1 1v2h2V2H2zm9 0a1 1 0 1 0 0-2H6a1 1 0 0 0 0 2zM5 8H2a1 1 0 0 0-1 1v1a1 1 0 0 0 1 1h13a1 1 0 0 0 1-1V9a1 1 0 0 0-1-1z" clip-rule="evenodd"/></symbol><symbol id="ic-furniture" viewBox="0 0 17 12"><path fill-rule="evenodd" d="M12 0a3 3 0 0 1 3 3v1a3 3 0 0 1-.764 2H15a2 2 0 1 1 0 4v2h-1v-2H3v2H2v-2a2 2 0 1 1 0-4h.764A3 3 0 0 1 2 4V3a3 3 0 0 1 3-3zM5.366 6h6.267a2.5 2.5 0 0 0 0-5H5.366a2.5 2.5 0 1 0 0 5M12 7H2a1 1 0 0 0 0 2h13a1 1 0 1 0 0-2z" clip-rule="evenodd"/></symbol><symbol id="ic-modular-furniture" viewBox="0 0 17 17"><path fill-rule="evenodd" d="M3 2a2 2 0 0 1 2-2h7a2 2 0 0 1 2 2v2a2 2 0 0 1-2 2v2h4a1 1 0 0 1 1 1v6a1 1 0 0 1-1 1v1h-2v-1H3v1H1v-1a1 1 0 0 1-1-1V9a1 1 0 0 1 1-1h4V6a2 2 0 0 1-2-2zm8 6V6H6v2zM4 3a2 2 0 0 1 2-2h5a2 2 0 1 1 0 4H6a2 2 0 0 1-2-2M2 9a1 1 0 0 0-1 1v1h7V9zm13 0a1 1 0 0 1 1 1v1H9V9zm-7 3H1v2a1 1 0 0 0 1 1h6zm7 3a1 1 0 0 0 1-1v-2H9v3z" clip-rule="evenodd"/></symbol><symbol id="ic-mattress" viewBox="0 0 13 17"><path fill-rule="evenodd" d="M1 0a1 1 0 0 0-1 1v15a1 1 0 0 0 1 1h11a1 1 0 0 0 1-1V1a1 1 0 0 0-1-1zm1 1a1 1 0 0 0-1 1v13a1 1 0 0 0 1 1h9a1 1 0 0 0 1-1V2a1 1 0 0 0-1-1zm6 3v1H7v1H6V5H5V4h1V3h1v1zm0 9v-1H7v-1H6v1H5v1h1v1h1v-1z" clip-rule="evenodd"/></symbol><symbol id="ic-kitchen" viewBox="0 0 17 17"><path fill-rule="evenodd" d="M8 0H7v3H5v.01L3.01 5H3v1h11V5h-.287L12 3.287V3h-2V0zm0 1.008V3h1V1.008zM12.287 5h-7.85l1-1h5.85zM17 11v-1h-5V9h-1v1H6V9H5v1H0v7h17zM1 16v-5h7v5zm8 0h7v-5H9zm4-2h-1v-1h1zm-9 0h1v-1H4z" clip-rule="evenodd"/></symbol><symbol id="ic-bed" viewBox="0 0 17 13"><path fill-rule="evenodd" d="M1 2a2 2 0 0 1 2-2h11a2 2 0 0 1 2 2v4c0 .412-.124.794-.338 1.112A2 2 0 0 1 17 9v1a2 2 0 0 1-2 2v1h-2v-1H4v1H2v-1a2 2 0 0 1-2-2V9a2 2 0 0 1 1.338-1.888A2 2 0 0 1 1 6zm2 5h1V6a2 2 0 0 1 2-2h1c.597 0 1.134.262 1.5.677A2 2 0 0 1 10 4h1a2 2 0 0 1 2 2v1h1a1 1 0 0 0 1-1V2a1 1 0 0 0-1-1H3a1 1 0 0 0-1 1v4a1 1 0 0 0 1 1m6 1H2a1 1 0 0 0-1 1v1a1 1 0 0 0 1 1h13a1 1 0 0 0 1-1V9a1 1 0 0 0-1-1zM8 7V6a1 1 0 0 0-1-1H6a1 1 0 0 0-1 1v1zm4 0V6a1 1 0 0 0-1-1h-1a1 1 0 0 0-1 1v1z" clip-rule="evenodd"/></symbol><symbol id="ic-armchair" viewBox="0 0 17 18"><path fill-rule="evenodd" d="M2 8V5.5A5.5 5.5 0 0 1 7.5 0h2A5.5 5.5 0 0 1 15 5.5V8h2v1a6 6 0 0 1-3.797 5.583l1.163 2.015-.866.5-1.283-2.222A6 6 0 0 1 11 15H6c-.616 0-1.21-.093-1.77-.265l-1.364 2.363-.866-.5 1.294-2.241A6 6 0 0 1 0 9V8zm1 0h1l.828.828A4 4 0 0 0 7.657 10h1.686a4 4 0 0 0 2.829-1.172L13 8h1V6a5 5 0 0 0-5-5H8a5 5 0 0 0-5 5zM1 9h2.5l1.121 1.121A3 3 0 0 0 6.743 11h3.514a3 3 0 0 0 2.122-.879L13.5 9H16a5 5 0 0 1-5 5H6a5 5 0 0 1-5-5" clip-rule="evenodd"/></symbol><symbol id="ic-cabinet-furniture" viewBox="0 0 17 17"><path fill-rule="evenodd" d="M1 0H0v17h1V9h7v6h8v2h1V0zm8 14h7v-2H9zm0-3h7V9H9zm0-3h2V1H1v7h4V7H3V3h6v4H7v1zM8 4v2H4V4zm8 4h-4V5h4zm0-4h-4V1h4z" clip-rule="evenodd"/></symbol><symbol id="ic-console" viewBox="0 0 9 17"><path fill-rule="evenodd" d="M0 16V0h9v17H0zm1 0h7V9H1zm7-8H1V1h7zM6 3.5V2H3v1.5zM6 10v1.5H3V10z" clip-rule="evenodd"/></symbol><symbol id="ic-dresser" viewBox="0 0 11 17"><path fill-rule="evenodd" d="M0 2a2 2 0 0 1 2-2h7a2 2 0 0 1 2 2v12a2 2 0 0 1-1 1.732V17H9v-1H2v1H1v-1.268A2 2 0 0 1 0 14zm10 8H1V6h9zm-9 3v-2h9v2a2 2 0 0 1-2 2H3a2 2 0 0 1-2-2m9-8H1V3a2 2 0 0 1 2-2h5a2 2 0 0 1 2 2zM6 3H5v1h1zM5 8h1v1H5zm1 5H5v1h1z" clip-rule="evenodd"/></symbol><symbol id="ic-cabinet-office" viewBox="0 0 14 17"><path fill-rule="evenodd" d="m4.768 3.475-.061.06L4 2.829l.06-.06-.06-.06L4.707 2l.06.06L6.062.769 6 .708 6.707 0l.06.06.061-.06.707.707-.06.06 1.293 1.294.06-.061.209.208 3.614.969.08-.08.707.708L7.87 9.37l-.62-.62-.044.012-.02-.076-.023-.023.013-.013-.968-3.614-.21-.209.062-.06-.086-.086L3.707 6.95l-.012-.013a1.997 1.997 0 0 1-.486 2.656L6.908 16H10v1H4v-1h1.753L2.278 9.98Q2.14 10 2 10a2 2 0 1 1 1.063-3.695L3 6.243l2.268-2.268zm3.225 4.36 3.842-3.842-2.828-.757-1.771 1.77zm.062-5.073-.005.016L6.778 4.05l-.016.005-1.287-1.287 1.293-1.293zM2 9a1 1 0 1 0 0-2 1 1 0 0 0 0 2" clip-rule="evenodd"/></symbol><symbol id="ic-sofa" viewBox="0 0 17 11"><path fill-rule="evenodd" d="M8 0H2v3H1a1 1 0 0 0-1 1v2a4 4 0 0 0 3 3.874V11h1v-1h9v1h1V9.874c1.725-.444 3-2.01 3-3.874V4a1 1 0 0 0-1-1h-1V0zm6 1H9v5h4V4a1 1 0 0 1 1-1zM3 3V1h5v5H4V4a1 1 0 0 0-1-1m1 6h9a3 3 0 0 0 3-3V4.5a.5.5 0 0 0-.5-.5h-1a.5.5 0 0 0-.5.5V7H3V4.5a.5.5 0 0 0-.5-.5h-1a.5.5 0 0 0-.5.5V6a3 3 0 0 0 3 3" clip-rule="evenodd"/></symbol><symbol id="ic-child-room" viewBox="0 0 18 18"><path fill-rule="evenodd" d="M9 18a9 9 0 0 0 6.13-15.589A9 9 0 1 0 9 18m8-9c0-1.278-.3-2.487-.833-3.559-.15 2.112-1.48 4.741-3.732 6.994s-4.882 3.582-6.994 3.732A8 8 0 0 0 17 9m-2.407-5.72-.146-.139c-.693-.598-1.763-.709-3-.401l3.612 3.612c.318-1.28.19-2.382-.466-3.072m.115 4.136L10.383 3.09c-1.4.569-2.922 1.59-4.312 2.98-3.056 3.056-4.335 6.759-2.926 8.38q.065.07.131.138c1.583 1.511 5.35.24 8.452-2.861 1.39-1.39 2.411-2.912 2.98-4.312M9 1a8 8 0 0 1 3.162.65c-2.077.215-4.614 1.53-6.798 3.714s-3.5 4.721-3.714 6.799A8 8 0 0 1 9 1" clip-rule="evenodd"/></symbol><symbol id="ic-living-room" viewBox="0 0 18 17"><path fill-rule="evenodd" d="M12.062 0h-7v.208L3.178 3h-.116v4h-3v4.767L0 11.828l.062.062V12h.11l3.89 3.89V17h1v-1h7v1h1v-1.222L16.84 12h.221V7h-3V3h-.146L12.062.253zm1 3.523V7h-1v2h-2.6l.904-1.516L9.5 7l-.817 1.37L7.866 7 7 7.484 7.904 9H5.062V7h-1V3.478L5.734 1h5.624zM8.866 10H5.062v2h7v-2zm4.196-2v5h-9V8h-3v3.475L4.586 15h7.84l3.635-3.636V8z" clip-rule="evenodd"/></symbol><symbol id="ic-headset" viewBox="0 0 17 14"><path fill-rule="evenodd" d="M17 0H0v11h2.923L1.5 13.464l.866.5L4.078 11h9.21L15 13.964l.866-.5L14.443 11H17zm-1 1h-4v9h4zm-5 0v9H6V1zm-6 9H1V1h4z" clip-rule="evenodd"/></symbol><symbol id="ic-snow" viewBox="0 0 19 19"><path fill-rule="evenodd" d="M9.242.05a.7.7 0 0 0-.204.177c-.078.11-.083.158-.094.923-.006.443-.025.807-.042.807-.028 0-.131-.07-.526-.353-.195-.14-.363-.156-.57-.056a.54.54 0 0 0-.265.72c.104.249.678.655 1.134.801l.262.084v1.053c0 .58-.01 1.053-.02 1.053-.012 0-.55-.417-1.197-.928-.778-.613-1.224-.94-1.316-.966-.253-.07-.52.062-.654.324-.029.056-.042.537-.042 1.55 0 .807-.009 1.468-.02 1.468s-.341-.179-.733-.397l-.718-.399a3 3 0 0 1 .046-.243c.094-.45.038-1.105-.119-1.37a.63.63 0 0 0-.465-.263.62.62 0 0 0-.471.263c-.093.134-.094.176-.021.785.018.152.013.213-.018.213-.024 0-.314-.152-.645-.339s-.658-.352-.725-.367c-.397-.092-.762.308-.644.703.06.197.157.274.832.65.331.185.602.354.602.374 0 .032-.19.136-.593.325-.366.171-.371.73-.01.958.282.177.887-.027 1.43-.482l.267-.225.706.394c.388.217.705.405.704.417 0 .013-.505.324-1.122.693-1.233.736-1.289.783-1.289 1.093s.056.356 1.29 1.093c.616.368 1.12.68 1.121.692 0 .013-.316.2-.704.417l-.706.395-.268-.225c-.542-.455-1.147-.66-1.429-.482-.361.227-.356.787.01.958.403.188.594.292.594.325 0 .02-.272.188-.603.373-.675.377-.772.453-.832.65-.11.37.16.716.551.708.13-.002.277-.069.79-.357.347-.195.65-.354.673-.354.03 0 .036.062.018.214-.073.608-.072.651.02.784.236.342.678.344.929.004.158-.214.224-.912.128-1.367-.047-.225-.046-.236.029-.282a41 41 0 0 1 1.373-.763c.012 0 .022.66.022 1.468 0 1.013.013 1.494.042 1.55.134.261.4.393.654.323.092-.025.538-.352 1.316-.966.647-.51 1.185-.928 1.196-.928.012 0 .02.474.02 1.053v1.053l-.261.084c-.456.147-1.03.553-1.134.802a.54.54 0 0 0 .265.72c.207.1.375.083.57-.057.398-.285.498-.352.528-.352.018 0 .033.344.033.764 0 .85.02.948.236 1.102.162.115.479.115.64 0 .216-.154.237-.252.237-1.102 0-.42.015-.764.033-.764.03 0 .13.067.528.352.195.14.363.157.57.057a.54.54 0 0 0 .265-.72c-.104-.25-.678-.655-1.134-.802l-.262-.084v-1.053c0-.579.01-1.053.021-1.053s.55.418 1.197.928c.778.614 1.223.941 1.315.966.253.07.52-.062.654-.323.029-.056.041-.537.041-1.55 0-.807.01-1.468.023-1.468.025 0 1.345.735 1.41.784.028.022.026.098-.01.264-.094.45-.03 1.149.125 1.357.256.346.701.35.932.007.093-.137.094-.179.022-.788-.018-.152-.013-.214.018-.214.023 0 .326.16.672.354.513.288.66.355.79.357.392.008.662-.338.551-.707-.059-.197-.154-.272-.827-.65-.33-.186-.601-.354-.603-.374-.003-.033.182-.135.59-.325.366-.171.371-.73.01-.958-.279-.175-.896.033-1.429.481l-.268.226-.706-.395c-.388-.217-.705-.404-.704-.417 0-.012.506-.323 1.122-.69 1.235-.736 1.288-.781 1.288-1.095s-.053-.36-1.287-1.095c-.617-.367-1.122-.678-1.123-.69 0-.013.316-.2.704-.418l.706-.394.268.225c.534.449 1.15.656 1.428.482.362-.227.357-.787-.01-.958-.406-.19-.592-.293-.59-.325 0-.02.272-.189.603-.374.673-.378.77-.453.828-.65.119-.395-.247-.795-.643-.703-.068.015-.394.18-.725.367s-.622.34-.645.34c-.031 0-.036-.062-.018-.214.072-.61.071-.651-.022-.788a.6.6 0 0 0-.47-.26.63.63 0 0 0-.465.263c-.157.265-.214.92-.119 1.37.028.132.049.242.046.243l-.717.4c-.39.217-.72.396-.733.396-.012 0-.022-.661-.022-1.469 0-1.012-.012-1.493-.041-1.549-.135-.262-.4-.394-.654-.324-.092.026-.537.352-1.315.966-.647.51-1.185.928-1.197.928-.011 0-.021-.473-.021-1.053V3.153l.262-.084c.456-.146 1.03-.552 1.134-.802a.54.54 0 0 0-.265-.72c-.207-.1-.375-.082-.57.057-.398.286-.498.353-.528.353-.018 0-.033-.344-.033-.765 0-.846-.022-.948-.232-1.097a.63.63 0 0 0-.576-.046M7.928 5.922l1.009.794V8.53l-.29-.16c-.16-.087-.636-.351-1.058-.586l-.767-.427V6.213c0-.941.008-1.138.049-1.113.027.016.503.387 1.057.823m4.237.292v1.141l-.731.408c-.402.225-.877.489-1.057.587l-.327.18V6.717l1.045-.822c.575-.452 1.051-.822 1.058-.822s.012.513.012 1.14m-4.85 2.698c.545.305.99.565.99.577 0 .029-1.972 1.132-2.023 1.132-.05 0-1.91-1.103-1.91-1.132 0-.033 1.87-1.146 1.913-1.139.02.004.484.257 1.03.562m6.356-.008c.519.311.943.575.943.585s-.427.275-.949.588l-.948.57-.9-.503c-1.164-.65-1.136-.633-1.136-.656 0-.017 2.004-1.15 2.034-1.15.007 0 .438.255.956.566M8.937 11.36v.903l-1.009.794a64 64 0 0 1-1.057.824c-.04.024-.05-.172-.049-1.113l.001-1.143 1.048-.584a95 95 0 0 1 1.056-.585c.005 0 .01.406.01.904m2.497-.144.73.409v1.143c.001.943-.007 1.137-.048 1.113a66 66 0 0 1-1.058-.825l-1.008-.794V10.45l.327.18c.18.098.655.362 1.056.586" clip-rule="evenodd"/></symbol></defs></svg>