<svg width="53" height="31" viewBox="0 0 53 31" fill="none" xmlns="http://www.w3.org/2000/svg">
<g clip-path="url(#clip0_99_16042)">
<path d="M52.3333 15.5C52.3333 24.0051 45.4179 31 36.8333 31C28.3281 31 21.3333 24.0051 21.3333 15.5C21.3333 6.99487 28.2486 0 36.7538 0C45.4179 0 52.3333 6.99487 52.3333 15.5Z" fill="#F9B50B"/>
<path d="M31.587 15.5795C31.587 14.4667 31.428 13.3538 31.2691 12.3205H21.7306C21.8101 11.7641 21.9691 11.2872 22.128 10.6513H30.6332C30.4742 10.0949 30.2357 9.53846 29.9973 8.98205H22.7639C23.0024 8.42564 23.3203 7.94872 23.6383 7.31282H29.1229C28.805 6.75641 28.4075 6.2 27.9306 5.64359H24.9101C25.387 5.08718 25.8639 4.61026 26.4998 4.05385C23.7973 1.51026 20.1409 0 16.087 0C7.66137 0.238462 0.666504 6.99487 0.666504 15.5C0.666504 24.0051 7.58189 31 16.1665 31C20.2203 31 23.7973 29.4103 26.5793 26.9462C27.1357 26.4692 27.6127 25.9128 28.1691 25.2769H24.9896C24.5921 24.8 24.1947 24.2436 23.8768 23.6872H29.2819C29.5998 23.2103 29.9178 22.6538 30.1562 22.018H22.9229C22.6845 21.541 22.446 20.9846 22.287 20.3487H30.7921C31.2691 18.9179 31.587 17.3282 31.587 15.5795Z" fill="#C8191C"/>
<path d="M21.6512 19.4745L21.8897 18.0438C21.8102 18.0438 21.6512 18.1233 21.4922 18.1233C20.9358 18.1233 20.8563 17.8053 20.9358 17.6463L21.4128 14.7848H22.2871L22.5256 13.1951H21.7307L21.8897 12.2412H20.2204C20.2204 12.2412 19.2666 17.6463 19.2666 18.2822C19.2666 19.2361 19.823 19.713 20.6179 19.713C21.0948 19.713 21.4922 19.554 21.6512 19.4745Z" fill="white"/>
<path d="M22.2078 16.8511C22.2078 19.1562 23.7975 19.7126 25.0693 19.7126C26.2616 19.7126 26.818 19.4742 26.818 19.4742L27.136 17.8844C27.136 17.8844 26.2616 18.2819 25.3873 18.2819C23.559 18.2819 23.877 16.9306 23.877 16.9306H27.2155C27.2155 16.9306 27.4539 15.8972 27.4539 15.4203C27.4539 14.387 26.8975 13.0357 25.0693 13.0357C23.4796 12.9562 22.2078 14.7844 22.2078 16.8511ZM25.0693 14.4665C25.9437 14.4665 25.7847 15.4998 25.7847 15.5793H23.9565C24.036 15.4998 24.1949 14.4665 25.0693 14.4665Z" fill="white"/>
<path d="M35.4819 19.4745L35.7999 17.6463C35.7999 17.6463 35.005 18.0437 34.3691 18.0437C33.2563 18.0437 32.6999 17.1694 32.6999 16.136C32.6999 14.1489 33.6537 13.1155 34.846 13.1155C35.6409 13.1155 36.3563 13.5924 36.3563 13.5924L36.5948 11.8437C36.5948 11.8437 35.6409 11.4463 34.6871 11.4463C32.7794 11.4463 30.9512 13.1155 30.9512 16.2155C30.9512 18.2822 31.905 19.6335 33.8922 19.6335C34.6076 19.713 35.4819 19.4745 35.4819 19.4745Z" fill="white"/>
<path d="M12.6693 12.957C11.5565 12.957 10.6822 13.275 10.6822 13.275L10.4437 14.7057C10.4437 14.7057 11.1591 14.3878 12.2719 14.3878C12.8283 14.3878 13.3052 14.4673 13.3052 14.9442C13.3052 15.2622 13.2257 15.3416 13.2257 15.3416H12.5104C11.0796 15.3416 9.56934 15.8981 9.56934 17.8057C9.56934 19.316 10.5232 19.634 11.1591 19.634C12.2719 19.634 12.8283 18.9186 12.9078 18.9186L12.8283 19.5545H14.1796L14.8155 15.0237C14.8155 13.0365 13.2257 12.957 12.6693 12.957ZM12.9873 16.6134C12.9873 16.8519 12.8283 18.2032 11.8745 18.2032C11.3975 18.2032 11.2386 17.8058 11.2386 17.5673C11.2386 17.1699 11.477 16.6134 12.7488 16.6134C12.9078 16.6134 12.9873 16.6134 12.9873 16.6134Z" fill="white"/>
<path d="M16.4051 19.6334C16.8026 19.6334 18.8693 19.7129 18.8693 17.4872C18.8693 15.4205 16.8821 15.818 16.8821 15.0231C16.8821 14.6257 17.2 14.4667 17.7564 14.4667C17.9949 14.4667 18.8693 14.5462 18.8693 14.5462L19.1077 13.0359C19.1077 13.0359 18.5513 12.877 17.518 12.877C16.3257 12.877 15.0539 13.3539 15.0539 15.0231C15.0539 16.9308 17.1205 16.7718 17.1205 17.4872C17.1205 17.9641 16.5641 18.0436 16.1667 18.0436C15.4513 18.0436 14.6564 17.8052 14.6564 17.8052L14.418 19.3154C14.5769 19.4744 15.0539 19.6334 16.4051 19.6334Z" fill="white"/>
<path d="M49.1539 11.6846L48.8359 13.9102C48.8359 13.9102 48.2 13.1153 47.2462 13.1153C45.7359 13.1153 44.4641 14.9435 44.4641 17.0897C44.4641 18.441 45.1 19.7923 46.5308 19.7923C47.4846 19.7923 48.1205 19.1564 48.1205 19.1564L48.041 19.7128H49.7103L50.9026 11.8435L49.1539 11.6846ZM48.359 15.9769C48.359 16.8512 47.9615 18.0435 47.0077 18.0435C46.4513 18.0435 46.1333 17.5666 46.1333 16.6923C46.1333 15.341 46.6898 14.5461 47.4846 14.5461C48.041 14.6256 48.359 15.023 48.359 15.9769Z" fill="white"/>
<path d="M3.68716 19.5538L4.641 13.6718L4.79998 19.5538H5.9128L8.05895 13.6718L7.18459 19.5538H8.93331L10.2846 11.6846H7.58203L5.9128 16.5333L5.83331 11.6846H3.44869L2.09741 19.5538H3.68716Z" fill="white"/>
<path d="M29.1231 19.5537C29.6 16.8511 29.6795 14.6255 30.8718 15.0229C31.0308 13.9896 31.2693 13.5127 31.4283 13.1152H31.1103C30.3949 13.1152 29.759 14.0691 29.759 14.0691L29.918 13.1947H28.3283L27.2949 19.5537H29.1231Z" fill="white"/>
<path d="M39.2975 12.957C38.1847 12.957 37.3103 13.275 37.3103 13.275L37.0719 14.7057C37.0719 14.7057 37.7873 14.3878 38.9001 14.3878C39.4565 14.3878 39.9334 14.4673 39.9334 14.9442C39.9334 15.2622 39.8539 15.3416 39.8539 15.3416H39.1385C37.7078 15.3416 36.1975 15.8981 36.1975 17.8057C36.1975 19.316 37.1514 19.634 37.7873 19.634C38.9001 19.634 39.4565 18.9186 39.536 18.9186L39.4565 19.5545H40.9667L41.6026 15.0237C41.6026 13.0365 39.8539 12.957 39.2975 12.957ZM39.6949 16.6134C39.6949 16.8519 39.536 18.2032 38.5821 18.2032C38.1052 18.2032 37.9462 17.8058 37.9462 17.5673C37.9462 17.1699 38.1847 16.6134 39.4565 16.6134C39.6155 16.6134 39.6155 16.6134 39.6949 16.6134Z" fill="white"/>
<path d="M42.8743 19.5537C43.3513 16.8511 43.4308 14.6255 44.6231 15.0229C44.782 13.9896 45.0205 13.5127 45.1795 13.1152H44.8615C44.1461 13.1152 43.5102 14.0691 43.5102 14.0691L43.6692 13.1947H42.0795L41.0461 19.5537H42.8743Z" fill="white"/>
</g>
<defs>
<clipPath id="clip0_99_16042">
<rect width="53" height="31" fill="white"/>
</clipPath>
</defs>
</svg>
